<svg width="45" height="35" viewBox="0 0 45 35" fill="none" xmlns="http://www.w3.org/2000/svg">
<path d="M26.9219 15.75C26.926 14.9744 26.7773 14.2055 26.4843 13.4874C26.1912 12.7692 25.7596 12.1158 25.2141 11.5645C24.6685 11.0131 24.0197 10.5746 23.3047 10.274C22.5897 9.97343 21.8225 9.8166 21.0469 9.81251H21C19.428 9.81664 17.9218 10.444 16.8116 11.5571C15.7015 12.6701 15.0781 14.178 15.0781 15.75C15.0781 18.5 14.5 20.0703 14.0156 20.8984C13.9334 21.0424 13.8902 21.2053 13.8902 21.3711C13.8902 21.5369 13.9334 21.6998 14.0156 21.8438C14.0973 21.9869 14.2156 22.1057 14.3584 22.1881C14.5012 22.2705 14.6633 22.3134 14.8281 22.3125H18.1875V22.625C18.1875 23.3709 18.4838 24.0863 19.0113 24.6137C19.5387 25.1412 20.2541 25.4375 21 25.4375C21.7459 25.4375 22.4613 25.1412 22.9887 24.6137C23.5162 24.0863 23.8125 23.3709 23.8125 22.625V22.3125H27.1719C27.3367 22.3134 27.4988 22.2705 27.6416 22.1881C27.7843 22.1057 27.9027 21.9869 27.9844 21.8438C28.0666 21.6998 28.1098 21.5369 28.1098 21.3711C28.1098 21.2053 28.0666 21.0424 27.9844 20.8984C27.5 20.0703 26.9219 18.5 26.9219 15.75V15.75ZM23.1875 22.625C23.1875 23.2052 22.957 23.7616 22.5468 24.1718C22.1366 24.582 21.5802 24.8125 21 24.8125C20.4198 24.8125 19.8634 24.582 19.4532 24.1718C19.043 23.7616 18.8125 23.2052 18.8125 22.625V22.3125H23.1875V22.625ZM27.4453 21.5313C27.417 21.5786 27.377 21.6179 27.3291 21.6453C27.2812 21.6727 27.227 21.6872 27.1719 21.6875H14.8281C14.7729 21.6872 14.7188 21.6727 14.6709 21.6453C14.623 21.6179 14.5829 21.5786 14.5547 21.5313C14.5284 21.4831 14.5153 21.4288 14.5167 21.374C14.5181 21.3191 14.5339 21.2656 14.5625 21.2188C15.0781 20.3203 15.7031 18.6406 15.7031 15.75C15.7021 15.0534 15.8383 14.3634 16.1039 13.7194C16.3696 13.0754 16.7594 12.49 17.2513 11.9967C17.7432 11.5034 18.3274 11.1118 18.9706 10.8443C19.6138 10.5768 20.3034 10.4385 21 10.4375H21.0391C21.7333 10.4406 22.4201 10.5805 23.0601 10.8492C23.7002 11.118 24.2811 11.5103 24.7694 12.0037C25.2577 12.4971 25.644 13.0819 25.9061 13.7248C26.1682 14.3676 26.301 15.0558 26.2969 15.75C26.2969 18.6406 26.9219 20.3203 27.4375 21.2188C27.4661 21.2656 27.4819 21.3191 27.4833 21.374C27.4847 21.4288 27.4716 21.4831 27.4453 21.5313V21.5313ZM28.4297 12.4453C28.3884 12.4659 28.343 12.4766 28.2969 12.4766C28.2386 12.477 28.1814 12.4611 28.1317 12.4307C28.082 12.4004 28.0418 12.3567 28.0156 12.3047C27.3751 11.0072 26.3882 9.91211 25.1641 9.14063C25.1292 9.11857 25.099 9.08986 25.0752 9.05613C25.0514 9.02241 25.0345 8.98432 25.0254 8.94406C25.0164 8.9038 25.0153 8.86214 25.0223 8.82147C25.0294 8.78081 25.0443 8.74192 25.0664 8.70704C25.0885 8.67216 25.1172 8.64196 25.1509 8.61817C25.1846 8.59439 25.2227 8.57748 25.263 8.56841C25.3032 8.55934 25.3449 8.55829 25.3856 8.56532C25.4262 8.57235 25.4651 8.58732 25.5 8.60938C26.8186 9.44264 27.8811 10.6242 28.5703 12.0234C28.589 12.0603 28.6003 12.1006 28.6033 12.1418C28.6064 12.1831 28.6012 12.2245 28.5881 12.2638C28.5751 12.303 28.5543 12.3393 28.5271 12.3704C28.4999 12.4016 28.4668 12.4271 28.4297 12.4453V12.4453ZM13.7031 12.4766C13.657 12.4766 13.6116 12.4659 13.5703 12.4453C13.5332 12.4271 13.5001 12.4016 13.4729 12.3704C13.4457 12.3393 13.4249 12.303 13.4118 12.2638C13.3988 12.2245 13.3936 12.1831 13.3967 12.1418C13.3997 12.1006 13.411 12.0603 13.4297 12.0234C14.1189 10.6242 15.1814 9.44264 16.5 8.60938C16.5349 8.58732 16.5738 8.57235 16.6144 8.56532C16.6551 8.55829 16.6968 8.55934 16.737 8.56841C16.7773 8.57748 16.8154 8.59439 16.8491 8.61817C16.8828 8.64196 16.9115 8.67216 16.9336 8.70704C16.9556 8.74192 16.9706 8.78081 16.9776 8.82147C16.9847 8.86214 16.9836 8.9038 16.9746 8.94406C16.9655 8.98432 16.9486 9.02241 16.9248 9.05613C16.901 9.08986 16.8708 9.11857 16.8359 9.14063C15.6118 9.91211 14.6248 11.0072 13.9844 12.3047C13.9582 12.3567 13.9179 12.4004 13.8682 12.4307C13.8186 12.4611 13.7614 12.477 13.7031 12.4766V12.4766Z" fill="white"/>
</svg>
