<svg width="15" height="12" viewBox="0 0 15 12" fill="none" xmlns="http://www.w3.org/2000/svg">
<path d="M0 10.6084C0.0799319 10.4316 0.136624 10.2387 0.244725 10.0816C0.465507 9.76155 0.795094 9.61577 1.2025 9.59218C1.2025 9.48584 1.19475 9.38373 1.20426 9.28302C1.22011 9.11189 1.31131 9.0228 1.47962 9.00167C1.53526 8.99463 1.5916 8.99393 1.64758 8.99393C5.3484 8.99393 9.04921 8.99393 12.75 8.99393C12.8106 8.99393 12.8719 8.99604 12.9317 9.00449C13.0796 9.02562 13.1648 9.11118 13.1867 9.25837C13.1948 9.31365 13.1955 9.36999 13.1976 9.42598C13.1993 9.47704 13.1979 9.5281 13.1979 9.55521C13.3993 9.62176 13.5955 9.65944 13.7645 9.74852C14.1645 9.95874 14.3723 10.3084 14.3906 10.7588C14.4029 11.0626 14.3958 11.3676 14.393 11.6722C14.3913 11.8662 14.2884 11.9736 14.0948 11.9937C14.0483 11.9986 14.0011 11.9979 13.9546 11.9979C9.44816 11.9979 4.94134 11.9975 0.434872 12C0.248951 12 0.0936647 11.9651 0 11.7887C0 11.3954 0 11.0017 0 10.6084ZM13.7821 11.3894C13.7821 11.1641 13.7937 10.9443 13.7793 10.7264C13.7603 10.444 13.5441 10.2366 13.2599 10.2098C13.1437 10.1989 13.0257 10.2049 12.9092 10.1961C12.7011 10.1799 12.6 10.069 12.5961 9.85944C12.5947 9.77317 12.5961 9.68655 12.5961 9.60732H1.79864C1.79864 9.69359 1.79935 9.7686 1.79864 9.84325C1.79618 10.0756 1.6916 10.1862 1.45955 10.1982C1.34757 10.2042 1.23454 10.1996 1.12292 10.2112C0.891928 10.2348 0.725021 10.3626 0.650019 10.576C0.556706 10.8405 0.614102 11.1172 0.603187 11.3898H13.7821V11.3894Z" fill="#191F4F"/>
<path d="M12.5863 7.79776C12.6972 7.79776 12.7954 7.79424 12.8933 7.79847C13.0634 7.80621 13.1807 7.91819 13.1902 8.07559C13.2004 8.24566 13.0986 8.36679 12.9215 8.39039C12.8662 8.39778 12.8095 8.39919 12.7535 8.39919C9.04709 8.39954 5.34065 8.39954 1.63455 8.39919C1.57399 8.39919 1.51272 8.39672 1.45286 8.38722C1.30074 8.36327 1.20285 8.24707 1.20285 8.09636C1.20285 7.94389 1.31166 7.81572 1.46694 7.80164C1.57364 7.79213 1.68174 7.79988 1.80604 7.79988C1.82259 7.64987 1.83702 7.50761 1.85463 7.36571C2.00675 6.13046 2.49655 5.04804 3.33566 4.12899C3.95328 3.45257 4.69485 2.95642 5.56777 2.67226C5.85932 2.57719 6.16461 2.52191 6.46568 2.45852C6.5604 2.4388 6.6023 2.40993 6.59702 2.30676C6.58857 2.14408 6.59491 1.98069 6.59491 1.80393C6.41145 1.80393 6.24384 1.80498 6.07588 1.80393C5.81425 1.80181 5.70545 1.68949 5.69453 1.42786C5.67516 0.965169 5.77798 0.553186 6.16426 0.254585C6.34983 0.111271 6.55688 0.013029 6.79421 0.0112684C7.11183 0.00845144 7.43754 -0.0232396 7.74565 0.0345085C8.33123 0.144019 8.67701 0.612694 8.6999 1.23842C8.71751 1.72787 8.64426 1.80428 8.15763 1.80428C8.04566 1.80428 7.93368 1.80428 7.80128 1.80428C7.80128 1.99935 7.79565 2.18528 7.80692 2.37014C7.80868 2.40077 7.88016 2.4462 7.92382 2.45254C8.47454 2.53247 8.9978 2.69656 9.49464 2.94657C10.4443 3.42404 11.1855 4.12723 11.7384 5.03113C12.1563 5.71425 12.4102 6.45758 12.5306 7.2474C12.5581 7.42663 12.5676 7.60867 12.5863 7.79812V7.79776ZM2.41944 7.78896H11.975C11.9426 7.2643 11.8581 6.75583 11.6648 6.27624C10.8644 4.29168 9.45098 3.11911 7.26077 3.011C6.58716 2.9779 5.94102 3.13002 5.32762 3.40926C4.51985 3.77652 3.86701 4.33323 3.35925 5.0579C2.78705 5.87447 2.48387 6.78611 2.41944 7.78896ZM6.30652 1.18384H8.08861C8.05763 0.83594 7.83649 0.616216 7.49775 0.601427C7.29739 0.592623 7.09598 0.592623 6.89562 0.601427C6.55723 0.61692 6.33434 0.839462 6.30687 1.18384H6.30652Z" fill="#191F4F"/>
<path d="M7.0435 3.66701C7.08646 3.66701 7.10054 3.66701 7.11463 3.66701C7.34844 3.66419 7.49492 3.77722 7.49915 3.9642C7.50302 4.1378 7.35971 4.27055 7.13787 4.27477C6.63856 4.28393 6.16636 4.39837 5.71811 4.61492C5.07689 4.92444 4.57547 5.38889 4.19659 5.98891C4.16419 6.04032 4.13602 6.09454 4.10187 6.1449C3.99658 6.29948 3.83003 6.34314 3.68812 6.25582C3.53953 6.16427 3.48495 5.98644 3.5941 5.82834C3.8089 5.51777 4.01841 5.19628 4.27687 4.92374C4.92583 4.24027 5.73325 3.84131 6.66638 3.70046C6.68504 3.69764 6.7037 3.69659 6.72236 3.69483C6.83892 3.68461 6.95547 3.6744 7.04315 3.66666L7.0435 3.66701Z" fill="#191F4F"/>
</svg>
