<svg width="59" height="115" viewBox="0 0 59 115" fill="none" xmlns="http://www.w3.org/2000/svg">
<g filter="url(#filter0_dd_4870_30110)">
<path d="M58 88C50.0435 88 42.4129 84.8393 36.7868 79.2132C31.1607 73.5871 28 65.9565 28 58C28 50.0435 31.1607 42.4129 36.7868 36.7868C42.4129 31.1607 50.0435 28 58 28V58L58 88Z" fill="#A7DEC7"/>
</g>
<g clipPath="url(#clip0_4870_30110)">
<path d="M39 65.6305C39 60.5439 39 55.4574 39 50.3713C39.1017 50.1317 39.1757 49.8741 39.3122 49.6561C39.5518 49.273 39.9441 49.0995 40.3713 49H49.3721C49.8781 49.1061 50.2366 49.4382 50.5911 49.783C51.1032 50.2814 51.6228 50.772 52.1442 51.2612C52.5339 51.6267 52.7175 52.0684 52.7149 52.6052C52.707 54.2046 52.7118 55.8039 52.7118 57.4033C52.7118 57.4641 52.7118 57.5249 52.7118 57.6297C52.8245 57.4976 52.9029 57.4046 52.9826 57.3126C53.4406 56.7798 53.8713 56.2196 54.3653 55.7229C54.8251 55.2605 55.4125 55.1716 56.0211 55.4244C56.6358 55.6798 56.956 56.162 56.9974 56.822C57.0269 57.2875 56.8287 57.6706 56.535 58.0172C55.2936 59.4831 54.054 60.9508 52.8188 62.4221C52.758 62.4943 52.7171 62.6074 52.7162 62.7017C52.7087 63.5745 52.7123 64.4473 52.7114 65.3205C52.7109 66.332 52.0398 67.0009 51.0261 67.0013C48.9582 67.0013 46.8903 67.0013 44.8219 67.0013C43.4216 67.0013 42.0217 67.0018 40.6214 67.0013C40.0687 67.0013 39.6103 66.7895 39.3012 66.332C39.1616 66.1241 39.0982 65.8656 39 65.6305ZM51.6563 63.785C51.4859 63.8779 51.3432 63.9695 51.1895 64.0377C50.5963 64.3002 49.9988 64.5534 49.4047 64.8141C49.178 64.9136 48.9617 64.9268 48.7649 64.7573C48.5725 64.5913 48.5615 64.3755 48.6165 64.1456C48.7429 63.6172 48.8684 63.0888 48.9934 62.5599C49.0824 62.1834 49.1731 61.8122 49.436 61.5048C50.1441 60.6765 50.8465 59.8433 51.544 59.0067C51.6078 58.93 51.6532 58.8116 51.6532 58.7125C51.6598 56.9431 51.658 55.1734 51.658 53.404C51.658 53.3472 51.658 53.2904 51.658 53.2186C51.5761 53.2186 51.5132 53.2186 51.4502 53.2186C50.6593 53.2186 49.868 53.2191 49.0771 53.2186C48.6997 53.2186 48.4945 53.0108 48.4941 52.6303C48.4932 51.8394 48.4941 51.0481 48.4941 50.2572V50.0542H48.2682C45.7603 50.0542 43.2525 50.0542 40.7447 50.0542C40.24 50.0542 40.0542 50.2387 40.0542 50.7403C40.0542 55.5802 40.0542 60.4202 40.0542 65.2602C40.0542 65.7626 40.2396 65.9475 40.7434 65.9475C44.1535 65.9475 47.5636 65.9475 50.9742 65.9475C51.027 65.9475 51.0799 65.9497 51.1323 65.9458C51.4286 65.9246 51.6466 65.7256 51.6528 65.4301C51.6646 64.8863 51.6563 64.3424 51.6563 63.785V63.785ZM51.8914 61.8703C52.8607 60.7218 53.825 59.5791 54.7995 58.4245C54.527 58.196 54.2649 57.9762 53.9985 57.753C53.0236 58.9071 52.0592 60.0481 51.0887 61.1965C51.3639 61.4277 51.6233 61.6453 51.891 61.8703H51.8914ZM51.5347 52.156C50.865 51.5166 50.2203 50.9015 49.5611 50.2722V52.156H51.5347ZM55.4869 57.616C55.6204 57.4522 55.7534 57.3108 55.8608 57.1519C56.0118 56.9282 55.9568 56.6468 55.7485 56.4742C55.5451 56.3055 55.2544 56.3139 55.0629 56.5068C54.9321 56.6389 54.8167 56.7859 54.6833 56.9387C54.9515 57.1646 55.21 57.3826 55.4869 57.616ZM51.2005 62.6775C50.9376 62.456 50.6752 62.2353 50.4092 62.0112C49.9847 62.3934 50.0582 62.943 49.8993 63.419C50.3462 63.1883 50.8909 63.1566 51.2005 62.6775V62.6775Z" fill="#191F4F"/>
<path d="M45.837 56.4179C44.4437 56.4179 43.05 56.4193 41.6567 56.4171C41.2441 56.4162 40.9847 56.0185 41.1622 55.6618C41.2661 55.4531 41.4431 55.3624 41.6765 55.3633C42.6193 55.3659 43.5617 55.3646 44.5045 55.3646C46.3487 55.3646 48.1929 55.3637 50.0376 55.365C50.4647 55.365 50.7302 55.7574 50.5497 56.1207C50.4458 56.3294 50.2688 56.4197 50.0354 56.4193C48.6359 56.4171 47.2369 56.4179 45.8374 56.4179H45.837Z" fill="#191F4F"/>
<path d="M45.8763 58.5287C47.2695 58.5287 48.6633 58.5273 50.0566 58.5295C50.4687 58.5304 50.7281 58.9285 50.5502 59.2852C50.4458 59.4939 50.2693 59.5838 50.0354 59.5833C49.0459 59.5807 48.0565 59.582 47.067 59.582C45.2695 59.582 43.4719 59.5829 41.6744 59.5816C41.2477 59.5816 40.9821 59.1888 41.1631 58.8255C41.2675 58.6167 41.4441 58.5269 41.6779 58.5273C43.0774 58.5295 44.4764 58.5287 45.8758 58.5287H45.8763Z" fill="#191F4F"/>
<path d="M44.256 53.2177C43.3841 53.2177 42.5118 53.2194 41.6399 53.2168C41.366 53.2159 41.1489 53.0252 41.1145 52.7689C41.0789 52.5052 41.2304 52.2643 41.488 52.1881C41.5536 52.1687 41.6258 52.1652 41.6949 52.1652C43.4158 52.1639 45.1363 52.1639 46.8572 52.1643C47.2034 52.1643 47.435 52.3731 47.4381 52.6835C47.4416 53.0041 47.21 53.2172 46.8546 53.2177C45.9884 53.2185 45.1222 53.2177 44.256 53.2177V53.2177Z" fill="#191F4F"/>
<path d="M44.2755 62.7484C43.3974 62.7484 42.5198 62.7497 41.6417 62.7475C41.3683 62.7467 41.1498 62.5564 41.1146 62.301C41.0776 62.0324 41.2397 61.7818 41.5026 61.7123C41.5633 61.696 41.6298 61.696 41.6937 61.696C43.4146 61.6951 45.1351 61.6951 46.856 61.696C47.21 61.696 47.4421 61.9109 47.4386 62.231C47.435 62.541 47.2034 62.7484 46.8564 62.7489C45.996 62.7497 45.1355 62.7489 44.2755 62.7489V62.7484Z" fill="#191F4F"/>
</g>
<defs>
<filter id="filter0_dd_4870_30110" x="24" y="23" width="38" height="69" filterUnits="userSpaceOnUse" colorInterpolationFilters="sRGB">
<feFlood floodOpacity="0" result="BackgroundImageFix"/>
<feColorMatrix in="SourceAlpha" type="matrix" values="0 0 0 0 0 0 0 0 0 0 0 0 0 0 0 0 0 0 127 0" result="hardAlpha"/>
<feOffset dy="-2"/>
<feGaussianBlur stdDeviation="1.5"/>
<feComposite in2="hardAlpha" operator="out"/>
<feColorMatrix type="matrix" values="0 0 0 0 0.921569 0 0 0 0 0.968627 0 0 0 0 1 0 0 0 0.25 0"/>
<feBlend mode="normal" in2="BackgroundImageFix" result="effect1_dropShadow_4870_30110"/>
<feColorMatrix in="SourceAlpha" type="matrix" values="0 0 0 0 0 0 0 0 0 0 0 0 0 0 0 0 0 0 127 0" result="hardAlpha"/>
<feOffset/>
<feGaussianBlur stdDeviation="2"/>
<feComposite in2="hardAlpha" operator="out"/>
<feColorMatrix type="matrix" values="0 0 0 0 0.920833 0 0 0 0 0.969373 0 0 0 0 1 0 0 0 1 0"/>
<feBlend mode="normal" in2="effect1_dropShadow_4870_30110" result="effect2_dropShadow_4870_30110"/>
<feBlend mode="normal" in="SourceGraphic" in2="effect2_dropShadow_4870_30110" result="shape"/>
</filter>
<clipPath id="clip0_4870_30110">
<rect width="18" height="18.0013" fill="white" transform="translate(39 49)"/>
</clipPath>
</defs>
</svg>
