<svg width="20" height="20" viewBox="0 0 20 20" fill="none" xmlns="http://www.w3.org/2000/svg">
<path d="M14.4081 17.6007C14.4081 17.7023 14.4081 17.7804 14.4081 17.858C14.4081 18.382 14.4081 18.9066 14.4081 19.4305C14.4081 19.8588 14.2709 20 13.8504 20C9.42125 20 4.99212 20 0.562985 20C0.136658 20 0.00058401 19.8623 0 19.4358C0 13.9464 0 8.45582 0 2.96584C0 2.53639 0.13257 2.40394 0.561817 2.40336C1.1651 2.40336 1.76838 2.40336 2.3886 2.40336C2.39327 2.31759 2.3997 2.24757 2.3997 2.17697C2.40086 1.64542 2.3997 1.11387 2.3997 0.582315C2.3997 0.128366 2.52643 0.00408437 2.98955 0.00350089C3.14956 0.00350089 3.31017 0.00350089 3.47019 0.00350089C6.38381 0.00350089 9.29802 0.00525133 12.2116 0C12.4552 0 12.6386 0.0723517 12.8108 0.246813C13.7943 1.24107 14.7836 2.2289 15.7776 3.21265C15.9353 3.36844 16.003 3.5324 15.9995 3.75295C15.9896 4.38545 15.996 5.01853 15.996 5.66677C17.3836 5.94101 18.4798 6.64761 19.2449 7.83382C19.7804 8.66354 20.0345 9.58194 19.9947 10.5669C19.906 12.7689 18.3642 14.681 15.9954 15.1396C15.9954 15.5556 15.9954 15.9763 15.9954 16.397C15.9954 16.6444 15.9984 16.8924 15.9943 17.1398C15.9896 17.4444 15.8413 17.5961 15.5376 17.5996C15.1685 17.6042 14.7988 17.6007 14.4069 17.6007H14.4081ZM11.9991 0.835546H3.22841V16.7687H15.1848V15.2166C12.6753 15.1968 10.5793 13.2555 10.4071 10.7191C10.3305 9.59244 10.6185 8.55209 11.2807 7.63427C12.2373 6.30744 13.5625 5.65335 15.1831 5.5915V4.01377C15.0879 4.01377 15.0085 4.01377 14.929 4.01377C14.1208 4.01377 13.3119 4.01435 12.5037 4.01377C12.141 4.01377 12.0014 3.87724 11.9996 3.51314C11.9967 2.86548 11.9985 2.21723 11.9985 1.56957C11.9985 1.33034 11.9985 1.09169 11.9985 0.836129L11.9991 0.835546ZM11.213 10.3854C11.1902 12.5799 12.9463 14.3554 15.1714 14.3863C17.3241 14.4167 19.1625 12.6493 19.1865 10.5266C19.2122 8.26793 17.4765 6.4358 15.2911 6.41538C13.0176 6.39379 11.2363 8.1279 11.213 10.3854ZM0.824038 19.1691H13.5771V17.6013H13.3037C9.87269 17.6013 6.44163 17.6013 3.01115 17.6013C2.51124 17.6013 2.40028 17.4887 2.40028 16.9811C2.40028 12.4888 2.40028 7.99662 2.40028 3.50439C2.40028 3.41337 2.40028 3.32234 2.40028 3.23949H0.824038V19.1691ZM12.812 1.46979V3.18931H14.5442C13.9631 2.61225 13.3832 2.03635 12.812 1.46979Z" fill="white"/>
<path d="M7.62206 4.80452C8.38594 4.80452 9.14983 4.80394 9.9143 4.80452C10.2256 4.80452 10.4002 4.95227 10.3996 5.20865C10.3996 5.45919 10.2332 5.61162 9.93415 5.61221C8.37718 5.61513 6.81963 5.61513 5.26266 5.61221C4.99401 5.61221 4.82348 5.46211 4.80596 5.23961C4.78961 5.03929 4.93211 4.85066 5.13476 4.8127C5.19842 4.80102 5.265 4.8051 5.3304 4.8051C6.09429 4.8051 6.85817 4.8051 7.62264 4.8051L7.62206 4.80452Z" fill="white"/>
<path d="M7.61553 2.40324C8.3654 2.40324 9.11469 2.40148 9.86456 2.40499C9.96442 2.40499 10.0719 2.41375 10.1618 2.45054C10.3248 2.5177 10.4007 2.65436 10.3913 2.83423C10.3826 3.00535 10.2985 3.12858 10.1385 3.17938C10.0374 3.2115 9.92471 3.2191 9.81667 3.2191C8.33912 3.22143 6.86158 3.22085 5.38462 3.22085C5.34082 3.22085 5.29702 3.22202 5.2538 3.22027C4.97231 3.20742 4.78951 3.03747 4.7971 2.79744C4.80469 2.56325 4.98223 2.40499 5.25672 2.40382C6.0428 2.4009 6.82887 2.40265 7.61495 2.40265L7.61553 2.40324Z" fill="white"/>
<path d="M5.94501 10.9618C6.32578 10.5843 6.67677 10.2365 7.02776 9.88874C7.08441 9.83214 7.13873 9.77263 7.19946 9.7207C7.38109 9.56608 7.61761 9.56958 7.77004 9.72478C7.92948 9.88699 7.9324 10.1105 7.76303 10.2919C7.59425 10.4728 7.41496 10.6438 7.23976 10.8188C6.92556 11.1327 6.61253 11.4478 6.296 11.7594C6.06356 11.9881 5.86267 11.9904 5.63198 11.7664C5.40247 11.5429 5.17587 11.3165 4.95219 11.0872C4.75947 10.8894 4.74662 10.6578 4.91073 10.4868C5.0836 10.3065 5.31428 10.3164 5.52569 10.5224C5.66585 10.6595 5.79667 10.806 5.94501 10.9629V10.9618Z" fill="white"/>
<path d="M5.94226 14.1586C6.32479 13.7788 6.68104 13.4257 7.03787 13.0722C7.09452 13.0156 7.14883 12.9555 7.21073 12.9053C7.39119 12.7594 7.61253 12.7647 7.76496 12.9146C7.92731 13.0739 7.93374 13.2986 7.7673 13.4818C7.62538 13.6376 7.4712 13.7828 7.3217 13.9316C6.98122 14.2712 6.64249 14.6114 6.29968 14.9492C6.05965 15.1855 5.85933 15.1844 5.61989 14.9492C5.3968 14.7298 5.17429 14.5093 4.95529 14.2852C4.75497 14.081 4.74504 13.8389 4.92317 13.6696C5.10012 13.5022 5.31621 13.5179 5.52295 13.7152C5.59653 13.7858 5.66953 13.8569 5.73961 13.931C5.80444 13.9999 5.86576 14.0722 5.94285 14.1592L5.94226 14.1586Z" fill="white"/>
<path d="M6.41779 7.20714C6.79623 7.20714 7.17467 7.20539 7.55311 7.20714C7.83168 7.20889 7.99988 7.3584 8.00163 7.60076C8.00338 7.84546 7.84219 8.00198 7.56187 8.00373C6.79039 8.0084 6.01891 8.0084 5.24685 8.00373C4.97354 8.00198 4.80067 7.83436 4.80476 7.59842C4.80885 7.36248 4.98522 7.20889 5.26029 7.20714C5.64632 7.20539 6.03176 7.20714 6.41779 7.20714V7.20714Z" fill="white"/>
<path d="M14.5804 11.0829C14.8408 10.8215 15.0972 10.5642 15.3536 10.308C15.7963 9.86516 16.2384 9.42288 16.6822 8.98118C16.7441 8.91992 16.806 8.85573 16.8773 8.8073C17.0402 8.69761 17.2394 8.72153 17.3766 8.85748C17.5063 8.98585 17.5325 9.2029 17.4303 9.35869C17.3906 9.41879 17.3375 9.47014 17.2861 9.5209C16.5094 10.2981 15.732 11.0753 14.9541 11.8513C14.6651 12.1396 14.4881 12.1378 14.1967 11.8472C13.8311 11.4826 13.4649 11.1173 13.1005 10.7515C12.8862 10.5362 12.864 10.294 13.038 10.119C13.2126 9.94393 13.4515 9.96726 13.6693 10.182C13.9689 10.4778 14.2685 10.7742 14.5804 11.0829V11.0829Z" fill="white"/>
</svg>
