<svg width="20" height="22" viewBox="0 0 20 22" fill="none" xmlns="http://www.w3.org/2000/svg">
<path d="M2.13785 18.8492C1.79065 18.826 1.47951 18.8333 1.17905 18.7804C0.42456 18.6489 -0.0722018 17.9529 0.00858874 17.1802C0.0820347 16.4809 0.717008 15.9164 1.44012 15.9091C1.65645 15.9071 1.87211 15.9091 2.11048 15.9091V12.4357C1.89815 12.4357 1.68516 12.4377 1.47217 12.4357C0.664928 12.4271 0.0132626 11.7978 0.00391491 11.0185C-0.00610045 10.1956 0.61819 9.54391 1.44279 9.51945C1.65845 9.51284 1.87478 9.51879 2.11115 9.51879V6.13326C1.89148 6.13326 1.67114 6.13921 1.45013 6.13194C0.704322 6.1088 0.0706839 5.53838 0.00725336 4.83708C-0.0628541 4.06175 0.425228 3.38095 1.19174 3.24478C1.48151 3.19323 1.78798 3.23619 2.11448 3.23619C2.12116 3.11854 2.12917 3.03195 2.12984 2.94536C2.13318 2.54084 2.11715 2.135 2.14052 1.73114C2.20128 0.716543 2.96579 0.0020252 3.99069 0.000703245C5.72335 -0.00194067 7.45668 0.00334716 9.18933 0.00863498C12.1799 0.0178887 15.1705 0.0278034 18.1618 0.0410229C19.0852 0.0449888 19.7896 0.619379 19.9732 1.50773C19.9979 1.62803 19.9999 1.75362 20.0006 1.87722C20.0019 7.96681 20.0019 14.0557 20.0006 20.1453C20.0006 21.2095 19.2174 21.9974 18.1451 21.9981C13.4298 22.0014 8.71394 22.0014 3.99871 21.9981C2.96379 21.9974 2.19327 21.2723 2.14253 20.2478C2.11983 19.7877 2.13852 19.3251 2.13852 18.8492H2.13785ZM7.06274 21.1811C7.14887 21.1857 7.2143 21.1917 7.27974 21.1917C10.8786 21.1917 14.4768 21.1936 18.0756 21.191C18.8094 21.191 19.2027 20.7845 19.2027 20.0429C19.2027 14.0286 19.2027 8.01506 19.2027 2.00082C19.2027 1.22285 18.8067 0.834858 18.0162 0.833536C14.6177 0.828909 11.2191 0.823621 7.82057 0.818994C7.57285 0.818994 7.32514 0.818994 7.06274 0.818994V21.1811ZM2.96445 4.00689V9.51681C3.08998 9.51681 3.19748 9.51681 3.30498 9.51681C3.755 9.51681 4.20502 9.51086 4.65438 9.52011C4.90677 9.5254 5.06901 9.69792 5.06701 9.92595C5.06501 10.1461 4.91344 10.2981 4.6684 10.3153C4.5609 10.3232 4.45207 10.3192 4.3439 10.3192C3.88787 10.3192 3.43184 10.3192 2.96112 10.3192V15.9085C3.05259 15.9085 3.13338 15.9085 3.21484 15.9085C3.69825 15.9085 4.18099 15.9032 4.66439 15.9111C4.96085 15.9157 5.14513 16.1748 5.04498 16.4399C4.97153 16.6336 4.81596 16.7043 4.60964 16.7016C4.06281 16.6964 3.5153 16.6997 2.94709 16.6997C2.94709 16.8087 2.94709 16.8894 2.94709 16.9707C2.94709 18.0031 2.94709 19.0362 2.94709 20.0687C2.94709 20.7997 3.33302 21.1877 4.06614 21.191C4.70779 21.1943 5.34878 21.1923 5.99043 21.191C6.06988 21.191 6.14867 21.1804 6.24148 21.1738V20.8737C6.24148 14.2977 6.24148 7.72093 6.24148 1.14486C6.24148 1.07876 6.25817 1.00539 6.23547 0.948546C6.21344 0.895007 6.14934 0.820316 6.10393 0.819655C5.32941 0.815689 4.55489 0.803131 3.78104 0.832875C3.37308 0.848738 2.9925 1.21558 2.96579 1.61812C2.93107 2.14161 2.95711 2.66907 2.95711 3.2157C3.50795 3.2157 4.03944 3.21504 4.57092 3.2157C4.89007 3.2157 5.06501 3.35583 5.06768 3.60766C5.06968 3.86148 4.89475 4.00623 4.57893 4.00689C4.04678 4.00821 3.5153 4.00689 2.96646 4.00689H2.96445ZM2.11382 5.31827V4.00954C1.87946 4.00954 1.66313 3.99698 1.44813 4.01218C1.07689 4.03862 0.799134 4.33342 0.803808 4.6758C0.808482 5.01555 1.06955 5.28787 1.43878 5.31497C1.65311 5.33083 1.87011 5.31761 2.11382 5.31761V5.31827ZM2.10847 18.0064V16.7036C1.87144 16.7036 1.64643 16.6884 1.42342 16.7069C1.06821 16.736 0.799134 17.0341 0.803808 17.3666C0.808482 17.6984 1.05953 17.9727 1.41341 18.0024C1.63575 18.0216 1.86076 18.0058 2.10847 18.0058V18.0064ZM2.11515 10.3258C1.87679 10.3258 1.65311 10.3106 1.43277 10.3292C1.06354 10.3609 0.804476 10.6385 0.803808 10.9756C0.80314 11.3087 1.06688 11.5976 1.42943 11.6306C1.65111 11.6504 1.87545 11.6346 2.11582 11.6346V10.3258H2.11515Z" fill="white"/>
<path d="M13.0836 3.36234C13.1664 3.37886 13.2505 3.39076 13.332 3.41191C14.1619 3.62937 14.6948 4.15088 14.867 4.98041C15.0173 5.70352 14.8109 6.34599 14.2528 6.85098C13.6245 7.41942 12.8887 7.54501 12.1121 7.23831C11.3937 6.95409 10.957 6.4035 10.8609 5.63015C10.7467 4.71404 11.2094 3.90963 12.0594 3.53022C12.2263 3.45553 12.4153 3.42909 12.5942 3.38018C12.6142 3.37489 12.6349 3.36828 12.655 3.36234C12.7979 3.36234 12.9407 3.36234 13.0836 3.36234ZM14.411 5.377C14.4137 4.53227 13.7286 3.85212 12.8753 3.85212C12.026 3.85212 11.345 4.525 11.3369 5.36973C11.3283 6.22107 12.054 6.9032 12.872 6.89791C13.7266 6.89196 14.4083 6.229 14.4117 5.37766L14.411 5.377Z" fill="white"/>
<path d="M12.9322 11.7185C12.2285 11.7185 11.5254 11.7231 10.8216 11.7165C10.4597 11.7132 10.1312 11.6008 9.85748 11.3576C9.61244 11.1395 9.46288 10.8652 9.43417 10.5433C9.37207 9.8499 9.45086 9.16975 9.71192 8.52001C9.86816 8.13136 10.1005 7.79624 10.4858 7.58936C10.7275 7.45914 10.9879 7.39701 11.2603 7.40164C11.3451 7.40296 11.4352 7.44526 11.5127 7.4869C11.6375 7.55432 11.7544 7.63695 11.8752 7.7123C12.2398 7.94034 12.6351 8.06328 13.0691 8.03089C13.3862 8.00709 13.6787 7.90266 13.9504 7.74006C14.0466 7.68255 14.1461 7.62769 14.2335 7.55763C14.4539 7.38181 14.6982 7.37718 14.9586 7.43403C15.4567 7.54243 15.8033 7.83788 16.0416 8.27479C16.2439 8.64626 16.3528 9.04615 16.4002 9.46058C16.4342 9.76199 16.4509 10.0674 16.4509 10.3714C16.4509 11.0324 15.9936 11.5651 15.3365 11.6848C15.2077 11.7086 15.0748 11.7178 14.9439 11.7185C14.2736 11.7218 13.6032 11.7198 12.9322 11.7198V11.7185ZM12.9355 11.2294C13.0677 11.2294 13.1993 11.2294 13.3315 11.2294C13.889 11.2294 14.4472 11.2366 15.0047 11.2261C15.625 11.2148 15.9695 10.8566 15.9582 10.2452C15.9535 10.0039 15.9381 9.76133 15.9081 9.52206C15.8634 9.16777 15.7799 8.82274 15.6036 8.50613C15.4434 8.21861 15.2264 8.00181 14.8912 7.92249C14.741 7.8868 14.6028 7.88019 14.4739 7.98793C14.3971 8.05204 14.3063 8.10161 14.2195 8.15317C13.5725 8.53389 12.8935 8.64031 12.1684 8.39575C11.8679 8.29462 11.6048 8.12938 11.3458 7.95686C11.2676 7.90464 11.1875 7.87886 11.0987 7.902C10.9752 7.93439 10.847 7.96281 10.7335 8.01899C10.4457 8.16044 10.2908 8.42021 10.174 8.69914C9.95096 9.23057 9.90289 9.79372 9.91424 10.3615C9.92091 10.7006 10.0718 10.9683 10.3896 11.1243C10.5632 11.2095 10.7509 11.23 10.9418 11.23C11.6068 11.23 12.2712 11.23 12.9362 11.23L12.9355 11.2294Z" fill="white"/>
<path d="M9.07812 14.0913H17.3628" stroke="white" strokeWidth="0.5" strokeMiterlimit="10"/>
<path d="M9.07812 15.7444H17.3628" stroke="white" strokeWidth="0.5" strokeMiterlimit="10"/>
<path d="M9.07812 17.3569H17.3628" stroke="white" strokeWidth="0.5" strokeMiterlimit="10"/>
</svg>
