<svg width="21" height="20" viewBox="0 0 21 20" fill="none" xmlns="http://www.w3.org/2000/svg">
<path d="M10.2741 -8.99882e-06C15.8101 0.0017797 20.2717 4.47829 20.2658 10.0226C20.2592 15.5444 15.7815 20.0048 10.2503 19.9994C4.71844 19.9946 0.261607 15.5133 0.269358 9.96541C0.277109 4.45742 4.75421 -0.00179769 10.2741 -8.99882e-06ZM10.2694 18.5637C15.0028 18.5637 18.8354 14.7376 18.8432 10.0048C18.8509 5.27307 15.0183 1.42737 10.2926 1.42558C5.55078 1.42379 1.69614 5.27903 1.71522 10.0036C1.7343 14.7347 5.56091 18.5643 10.2694 18.5637Z" fill="#191F4F"/>
<path d="M10.2721 10.982C9.9984 11.2646 9.75812 11.5168 9.51307 11.7643C9.09928 12.1816 8.6855 12.599 8.26575 13.0098C7.95571 13.3139 7.5145 13.3145 7.2301 13.0217C6.95225 12.7355 6.95881 12.3039 7.25693 12.0022C7.85852 11.394 8.46549 10.7912 9.07007 10.186C9.12671 10.1288 9.18156 10.0698 9.26682 9.98035C9.15592 9.88018 9.04801 9.79075 8.94963 9.69237C8.40646 9.15218 7.86449 8.61021 7.3243 8.06704C6.98862 7.72957 6.97252 7.29909 7.28018 6.99979C7.58187 6.70704 8.00221 6.72671 8.33133 7.05464C8.9216 7.64252 9.51009 8.2322 10.0992 8.82127C10.1504 8.87255 10.2053 8.92084 10.2762 8.98703C10.4551 8.80518 10.625 8.63048 10.7973 8.45817C11.2702 7.98416 11.7418 7.50897 12.2176 7.03854C12.5407 6.71836 12.9724 6.713 13.2681 7.01767C13.5525 7.31102 13.5364 7.73732 13.2216 8.05333C12.5813 8.69606 11.9379 9.33582 11.2791 9.99406C11.3405 10.0585 11.3936 10.1163 11.4496 10.1723C12.0596 10.7829 12.6701 11.3922 13.2789 12.004C13.4995 12.2258 13.5615 12.4911 13.4524 12.7826C13.3528 13.0492 13.1483 13.1994 12.8651 13.2316C12.6182 13.2602 12.4179 13.1666 12.245 12.9925C11.6529 12.3963 11.0567 11.803 10.4635 11.208C10.4056 11.1502 10.3567 11.084 10.2703 10.982H10.2721Z" fill="#191F4F"/>
</svg>
