<svg width="24" height="24" viewBox="0 0 24 24" fill="none" xmlns="http://www.w3.org/2000/svg">
<path d="M5.18212 6.40665C5.18545 6.33935 5.18878 6.29805 5.18945 6.2574C5.19811 5.6711 5.26074 5.61047 5.85771 5.61047C6.51397 5.61047 7.1709 5.59981 7.82717 5.6138C8.47144 5.62779 8.89851 5.32198 9.16035 4.75699C9.2463 4.57243 9.33758 4.41786 9.56744 4.41453C9.80996 4.41053 9.9039 4.5731 9.99384 4.76565C10.2583 5.3293 10.6901 5.63912 11.333 5.6118C11.5236 5.6038 11.7155 5.6078 11.906 5.6118C12.2325 5.61713 12.3644 5.75571 12.3684 6.09084C12.3697 6.19011 12.3684 6.28938 12.3684 6.48193C12.4757 6.38866 12.5696 6.34735 12.5836 6.28739C13.006 4.52313 12.7602 2.68292 10.9679 1.48099C8.50076 -0.172666 5.18345 1.38372 4.829 4.34257C4.79769 4.60575 4.80368 4.87358 4.79969 5.13875C4.79569 5.43124 4.65311 5.60447 4.4026 5.60647C4.16341 5.60847 4.01083 5.44257 3.99551 5.1654C3.85693 2.67093 5.48127 0.570879 7.92444 0.0851761C10.5395 -0.434506 13.1826 1.48632 13.5224 4.14403C13.619 4.89823 13.5437 5.63778 13.4004 6.37467C13.3738 6.51258 13.3764 6.59187 13.501 6.68714C13.8941 6.98763 14.0141 7.40737 13.9561 7.88574C13.8535 8.72256 13.2579 9.3795 12.4304 9.55606C12.2551 9.59337 12.1639 9.67398 12.0712 9.83522C11.85 10.221 11.5949 10.5901 11.3244 10.9439C11.2264 11.0718 11.1698 11.1797 11.1718 11.339C11.1791 11.9219 11.1818 12.5049 11.1698 13.0872C11.1665 13.2385 11.1292 13.403 11.0599 13.537C10.6688 14.2938 10.0132 14.6876 9.19233 14.7822C8.19628 14.8968 7.30882 14.6669 6.66921 13.8181C6.47466 13.5596 6.36673 13.2811 6.38072 12.9413C6.40404 12.393 6.39404 11.8427 6.38072 11.293C6.37805 11.1837 6.31276 11.0665 6.25013 10.9705C5.99695 10.5834 5.71712 10.213 5.48127 9.81656C5.39665 9.67398 5.3207 9.59337 5.16013 9.56072C4.20871 9.36684 3.59642 8.61396 3.59376 7.64789C3.59176 6.97497 4.09412 6.44262 4.76771 6.40865C4.89829 6.40198 5.03021 6.40798 5.18212 6.40798V6.40665ZM5.98829 6.40998C5.98829 7.11355 5.98629 7.77914 5.98963 8.44407C5.98963 8.56 6.00961 8.67593 6.0256 8.79119C6.21016 10.145 7.2835 11.1264 8.66266 11.203C9.97452 11.2763 11.2278 10.3875 11.4609 9.06502C11.6109 8.21554 11.5382 7.32675 11.5636 6.45528C11.5636 6.44329 11.5429 6.43063 11.5182 6.40332C10.7567 6.48193 10.0891 6.26473 9.58876 5.64311C8.8099 6.42264 8.40415 6.42397 7.58132 6.41198C7.05964 6.40398 6.53796 6.41064 5.98829 6.41064V6.40998ZM7.1829 11.6448C7.1829 12.1291 7.1769 12.5782 7.18823 13.0273C7.19022 13.1185 7.24286 13.2178 7.29616 13.2978C7.89646 14.1999 9.53746 14.2532 10.1964 13.3917C10.2703 13.2951 10.3623 13.1785 10.367 13.0679C10.3863 12.6055 10.3749 12.1411 10.3749 11.6494C9.30893 12.1278 8.26424 12.1325 7.18356 11.6454L7.1829 11.6448ZM12.3697 8.70924C12.8574 8.58798 13.2312 8.04365 13.1612 7.59325C13.1166 7.30676 12.7721 7.11688 12.5163 7.2508C12.451 7.28478 12.3784 7.38005 12.3764 7.44934C12.3631 7.86242 12.3697 8.27617 12.3697 8.70991V8.70924ZM5.18878 8.70125C5.18878 8.26884 5.19211 7.83977 5.18412 7.4107C5.18345 7.36006 5.12682 7.29344 5.07818 7.26412C4.82967 7.11222 4.47122 7.26945 4.40593 7.55261C4.30066 8.00767 4.70374 8.6113 5.18878 8.70191V8.70125Z" fill="black"/>
<path d="M16.7634 2.41294C16.7634 2.23771 16.7547 2.09647 16.7654 1.95655C16.7821 1.74468 16.9346 1.61343 17.1492 1.6121C17.3724 1.61076 17.5403 1.7207 17.5476 1.93923C17.5669 2.52154 17.5622 3.10518 17.5496 3.68749C17.5449 3.8887 17.3604 4.01529 17.1458 4.00996C16.9326 4.00463 16.7807 3.87138 16.7654 3.66018C16.7547 3.52093 16.7634 3.38035 16.7634 3.21245C16.6135 3.21245 16.4829 3.20379 16.3536 3.21445C16.1178 3.23377 15.9652 3.38035 15.9666 3.6222C15.9732 4.7122 15.9306 5.80687 16.0185 6.89087C16.1478 8.48323 17.4976 9.78843 19.08 9.96632C21.0228 10.1842 22.6631 9.01624 23.0675 7.11806C23.1188 6.87621 23.1395 6.62303 23.1422 6.37518C23.1508 5.53437 23.1455 4.69288 23.1455 3.85206C23.1455 3.30439 23.0409 3.20246 22.4852 3.21112C22.4519 3.21112 22.4193 3.21512 22.346 3.21978C22.346 3.3477 22.3506 3.47696 22.3453 3.60554C22.3353 3.8474 22.1841 4.0013 21.9589 4.0073C21.7237 4.01329 21.5551 3.85472 21.5525 3.60155C21.5465 3.06854 21.5465 2.53553 21.5525 2.00252C21.5551 1.75734 21.709 1.61276 21.9422 1.60943C22.1874 1.6061 22.336 1.75334 22.3453 2.01385C22.35 2.13711 22.346 2.26037 22.346 2.41294C22.4872 2.41294 22.6092 2.41294 22.7311 2.41294C23.4133 2.41694 23.9377 2.92796 23.941 3.60488C23.9457 4.60427 23.951 5.60366 23.939 6.60238C23.915 8.61648 22.2261 10.5013 20.2333 10.7538C20.144 10.7652 20.0561 10.7838 19.9528 10.8018V11.089C19.9528 12.8212 19.9534 14.5529 19.9528 16.2851C19.9521 17.5584 19.1153 18.3998 17.8507 18.4005C16.2384 18.4005 14.626 18.4005 13.0137 18.4005C12.9224 18.4005 12.8311 18.4005 12.7465 18.4005C12.6579 18.5737 12.5893 18.745 12.4893 18.8955C12.0816 19.5072 11.3354 19.751 10.6491 19.5078C9.94623 19.2586 9.52049 18.5864 9.58445 17.8289C9.64308 17.1379 10.2187 16.5336 10.9296 16.4157C11.6199 16.3011 12.3354 16.6776 12.6139 17.3418C12.7045 17.5584 12.8131 17.6103 13.031 17.6083C14.161 17.5977 15.2916 17.603 16.4216 17.603H16.7341C16.7008 17.3871 16.6841 17.1926 16.6401 17.004C16.1718 15.0239 14.4921 13.6601 12.4594 13.6048C12.1322 13.5961 11.9857 13.4835 11.9723 13.233C11.9583 12.9645 12.1116 12.8066 12.4014 12.8073C13.6273 12.8086 14.7173 13.2023 15.6587 13.9825C16.7221 14.8633 17.3444 15.9966 17.5156 17.3738C17.5249 17.4464 17.5449 17.5177 17.5609 17.5923C17.9687 17.6256 18.3531 17.609 18.6862 17.3525C18.9814 17.1253 19.1473 16.8168 19.1493 16.451C19.1593 14.6521 19.1553 12.8539 19.1559 11.055C19.1559 10.9804 19.1559 10.9064 19.1559 10.8085C18.99 10.7758 18.8301 10.7472 18.6716 10.7139C16.6008 10.2768 15.173 8.51854 15.1664 6.39517C15.1637 5.48773 15.1644 4.57962 15.1664 3.67217C15.1677 2.9113 15.6707 2.41427 16.4349 2.41294C16.5335 2.41294 16.6315 2.41294 16.7641 2.41294H16.7634ZM11.9737 18.0007C11.9737 17.5703 11.6139 17.2066 11.1828 17.2026C10.7531 17.1986 10.3873 17.5557 10.3786 17.9874C10.37 18.4238 10.7457 18.8036 11.1821 18.7996C11.6112 18.7956 11.973 18.4298 11.9737 18.0007Z" fill="black"/>
<path d="M0.804442 20.7957H2.79589C2.79589 20.4166 2.79456 20.0449 2.79589 19.6738C2.79722 19.3619 2.92648 19.2074 3.18365 19.2027C3.45416 19.198 3.59074 19.3539 3.59141 19.6784C3.59274 20.7524 3.59141 21.8264 3.59141 22.9011C3.59141 22.9917 3.59141 23.0817 3.59141 23.1876H13.9677C13.9677 23.0937 13.9677 23.0044 13.9677 22.9158C13.9677 21.8418 13.9651 20.7678 13.9717 19.6931C13.9724 19.5751 13.991 19.4066 14.0663 19.3526C14.1863 19.2667 14.3788 19.196 14.5074 19.2334C14.6173 19.2653 14.7419 19.4532 14.7519 19.5811C14.7832 19.9769 14.7632 20.3767 14.7632 20.7897H16.7607C16.7607 20.4086 16.7594 20.0369 16.7607 19.6644C16.762 19.3566 16.8953 19.204 17.1564 19.2034C17.419 19.2027 17.5555 19.3553 17.5555 19.6611C17.5569 20.9516 17.5569 22.2422 17.5555 23.5334C17.5555 23.8612 17.4143 24.0011 17.0832 24.0011C11.5485 24.0018 6.01326 24.0018 0.478641 24.0011C0.137516 24.0011 0.0035978 23.8619 0.0035978 23.5114C0.0035978 21.6126 -0.00639609 19.7144 0.0069291 17.8156C0.0235856 15.3697 2.04235 13.1371 4.46887 12.8606C4.69939 12.8346 4.93192 12.8173 5.16311 12.8126C5.43295 12.8079 5.58219 12.9485 5.58952 13.1904C5.59751 13.4469 5.44894 13.5995 5.17311 13.6068C4.16306 13.6321 3.24562 13.9273 2.45343 14.5662C1.42406 15.3957 0.870401 16.4857 0.813103 17.7989C0.769796 18.787 0.804442 19.779 0.804442 20.7957ZM2.77657 23.1949V21.6166H0.815102V23.1949H2.77657ZM14.7819 21.6152V23.1849H16.7487V21.6152H14.7819Z" fill="black"/>
</svg>
