<svg width="32" height="32" viewBox="0 0 32 32" fill="none" xmlns="http://www.w3.org/2000/svg">
<path d="M8 17.9544C9.10457 17.9544 10 17.0613 10 15.9596C10 14.8579 9.10457 13.9648 8 13.9648C6.89543 13.9648 6 14.8579 6 15.9596C6 17.0613 6.89543 17.9544 8 17.9544Z" fill="white"/>
<path d="M16 17.9544C17.1046 17.9544 18 17.0613 18 15.9596C18 14.8579 17.1046 13.9648 16 13.9648C14.8954 13.9648 14 14.8579 14 15.9596C14 17.0613 14.8954 17.9544 16 17.9544Z" fill="white"/>
<path d="M24 17.9544C25.1046 17.9544 26 17.0613 26 15.9596C26 14.8579 25.1046 13.9648 24 13.9648C22.8954 13.9648 22 14.8579 22 15.9596C22 17.0613 22.8954 17.9544 24 17.9544Z" fill="white"/>
</svg>
