<svg width="20" height="20" viewBox="0 0 20 20" fill="none" xmlns="http://www.w3.org/2000/svg">
<path d="M13.437 0C14.0361 0 14.6352 0 15.2338 0C15.8506 0.229525 16.0573 0.696401 16.0103 1.31925C15.9942 1.53678 16.0077 1.75691 16.0077 1.99426C16.0928 1.99426 16.1565 1.99426 16.2196 1.99426C16.7008 1.99426 17.1814 1.99061 17.6626 1.99531C18.1662 2.00052 18.5774 2.34742 18.6552 2.84246C18.6812 3.00782 18.6672 3.17945 18.6687 3.34794C18.6703 3.55921 18.6687 3.771 18.6687 3.99009C18.7835 3.99009 18.8681 3.98905 18.9521 3.99009C19.3357 3.99635 19.6451 4.14397 19.8518 4.47626C19.9087 4.56755 19.9504 4.66771 19.999 4.76369V18.1961C19.8022 18.7986 19.3727 19.0094 18.758 19.0047C16.5906 18.9896 14.4228 18.999 12.2555 18.9995C12.1736 18.9995 12.0911 19.0063 12.0128 19.0099C11.9278 19.7256 11.4023 20.0261 10.8428 19.9984C10.239 19.9687 9.63261 19.9927 9.02724 19.9906C8.93696 19.9906 8.84407 19.9849 8.75796 19.9614C8.28045 19.8315 8.04352 19.4982 7.98716 18.9995H7.73197C5.55161 18.9995 3.37073 18.9995 1.19038 18.9995C1.11888 18.9995 1.04686 19.001 0.97589 18.9953C0.377831 18.9489 0 18.543 0 17.9442C0 13.6437 0 9.34272 0 5.04225C0 4.42723 0.421146 4.00156 1.03747 3.99061C1.13141 3.98905 1.22586 3.99061 1.32919 3.99061C1.32919 3.65363 1.32815 3.34846 1.32919 3.0433C1.3318 2.42932 1.75817 1.99635 2.36979 1.99531C4.35497 1.99322 6.34015 1.99113 8.32533 1.99635C8.96775 1.99791 9.49536 2.25926 9.90293 2.75796C9.9332 2.79499 9.96869 2.82838 10.0078 2.86959C10.371 2.37246 10.8412 2.07564 11.4341 2.01356C11.7691 1.97809 12.1099 1.99896 12.4481 1.99531C12.5159 1.99426 12.5843 1.99531 12.6594 1.99531C12.6594 1.64424 12.6526 1.32499 12.661 1.00678C12.6714 0.604069 12.8546 0.299948 13.2137 0.108503C13.2862 0.0699009 13.3619 0.037037 13.436 0.0010433L13.437 0ZM9.64774 15.8211C9.65244 15.7214 9.65766 15.6646 9.65766 15.6082C9.65766 11.7626 9.65818 7.91758 9.65661 4.07199C9.65661 3.9494 9.65244 3.82316 9.62478 3.70475C9.46978 3.05112 8.95627 2.66875 8.23087 2.66771C6.31041 2.66562 4.39046 2.66667 2.46999 2.66771C2.09842 2.66771 1.99927 2.76995 1.99927 3.14815C1.99927 7.04591 1.99927 10.9431 1.99927 14.8409C1.99927 15.23 2.09112 15.3208 2.48461 15.3208C4.3461 15.3208 6.20812 15.3255 8.06962 15.3182C8.63897 15.3161 9.16867 15.4131 9.64826 15.8221L9.64774 15.8211ZM16.0082 2.66875V2.94366C16.0082 5.4747 16.0077 8.00574 16.0088 10.5368C16.0088 10.8962 15.9263 11.229 15.7437 11.5409C15.4744 12.0005 15.2171 12.4674 14.9499 12.928C14.6399 13.4627 14.0272 13.4648 13.7188 12.9327C13.4548 12.4773 13.2001 12.0172 12.9339 11.5629C12.745 11.24 12.6573 10.8978 12.6579 10.5232C12.6615 7.98592 12.66 5.4481 12.66 2.9108C12.66 2.83568 12.66 2.76004 12.66 2.66719C12.3218 2.66719 12.0108 2.66458 11.6997 2.66875C11.5959 2.6698 11.4904 2.67762 11.3892 2.69901C10.7875 2.82942 10.335 3.37194 10.3366 4.06208C10.3465 7.92019 10.3413 11.7788 10.3418 15.6369C10.3418 15.6854 10.3497 15.734 10.3543 15.7903C11.1032 15.2916 11.409 15.3187 12.1323 15.3193C13.9161 15.3193 15.6993 15.3193 17.483 15.3193C17.5545 15.3193 17.6266 15.3203 17.6975 15.3146C17.8536 15.3026 17.9496 15.2144 17.9809 15.0647C17.9981 14.9833 17.9992 14.8972 17.9992 14.8133C18.0002 10.9353 17.9997 7.05738 17.9997 3.17945C17.9997 3.12102 18.0028 3.06208 17.9966 3.00365C17.9757 2.79604 17.8671 2.67501 17.6584 2.67136C17.1193 2.66249 16.5797 2.66823 16.0077 2.66823L16.0082 2.66875ZM1.32972 4.69536C0.794802 4.61346 0.665379 4.7204 0.665379 5.22327C0.665379 9.43297 0.665379 13.6427 0.665379 17.8529C0.665379 18.2165 0.766621 18.3187 1.12567 18.3187C3.43023 18.3187 5.73427 18.3224 8.03883 18.3161C8.49494 18.3151 8.70577 18.3292 8.67342 18.9317C8.65933 19.1888 8.79501 19.3239 9.04812 19.3255C9.68584 19.3302 10.3241 19.3307 10.9618 19.3255C11.2034 19.3234 11.3255 19.1873 11.3302 18.9421C11.3313 18.8899 11.3302 18.8378 11.3302 18.7861C11.3308 18.4283 11.4383 18.3198 11.7947 18.3198C12.8885 18.3198 13.9818 18.3198 15.0757 18.3198C16.3516 18.3198 17.6276 18.3198 18.903 18.3198C19.2224 18.3198 19.3325 18.2071 19.3351 17.8842C19.3351 17.8649 19.3351 17.8451 19.3351 17.8258C19.3351 13.6093 19.3351 9.39332 19.3351 5.17684C19.3351 5.10537 19.3414 5.03182 19.3273 4.96296C19.2934 4.79186 19.1953 4.68232 19.0095 4.6771C18.9015 4.67397 18.7934 4.67658 18.6703 4.67658C18.6703 4.78404 18.6703 4.8675 18.6703 4.95097C18.6703 8.8096 18.6703 12.6677 18.6703 16.5263C18.6703 17.2671 18.2799 17.6614 17.5431 17.662C12.5112 17.6625 7.47939 17.6625 2.44807 17.662C1.72529 17.662 1.33024 17.2624 1.33024 16.5368C1.33024 12.6719 1.33024 8.80699 1.33024 4.9421V4.69744L1.32972 4.69536ZM9.60443 16.9885C9.59451 16.9452 9.59033 16.9202 9.58303 16.8967C9.40038 16.3453 8.90721 16.0031 8.28045 16.0026C6.19299 16.001 4.10552 16.0021 1.99927 16.0021C1.99927 16.1518 1.99927 16.3328 1.99927 16.5133C2.00031 16.8905 2.09686 16.988 2.47156 16.9885C4.7756 16.9885 7.07964 16.9885 9.38368 16.9885H9.60443ZM10.3982 16.9885H10.6461C12.5399 16.9885 14.4343 16.9885 16.3281 16.9885C16.7644 16.9885 17.2002 16.9885 17.6365 16.9885C17.8238 16.9885 17.9652 16.9025 17.9819 16.7157C18.0039 16.4679 17.9872 16.2165 17.9872 16.0026C17.5822 16.0026 17.1929 16.0026 16.8041 16.0026C15.0986 16.0026 13.3937 16.0005 11.6882 16.0037C11.0557 16.0047 10.5521 16.3871 10.3977 16.989L10.3982 16.9885ZM13.3499 4.01617V10.6479H13.9756V4.01617H13.3499ZM15.3131 10.651V4.01982H14.6853V10.6515H15.3131V10.651ZM13.3399 1.6505H15.3236C15.3236 1.42567 15.3293 1.21283 15.322 1C15.3152 0.80386 15.2041 0.676056 15.0089 0.671362C14.5616 0.660407 14.1133 0.660929 13.6656 0.670318C13.4694 0.674491 13.3525 0.795514 13.342 0.991654C13.3311 1.20396 13.3394 1.41784 13.3394 1.6505H13.3399ZM13.3457 3.31403H15.3142V2.35263H13.3457V3.31403ZM13.5816 11.3333C13.8383 11.782 14.0773 12.1993 14.3346 12.6489C14.5935 12.1941 14.8325 11.7736 15.083 11.3333H13.5816Z" fill="white"/>
<path d="M5.32371 4.70251C5.32371 4.57888 5.31693 4.46203 5.32528 4.34622C5.34041 4.13235 5.48393 3.98889 5.66814 3.99255C5.85445 3.99568 5.9917 4.14069 6.0037 4.35509C6.00997 4.4709 6.00475 4.58775 6.00475 4.70355C6.50991 4.87413 6.83973 5.19442 6.96394 5.70564C6.9822 5.78076 6.98951 5.85952 6.99212 5.93673C6.99995 6.17512 6.88566 6.31701 6.68317 6.3264C6.47599 6.33631 6.34918 6.21164 6.32726 5.97585C6.28917 5.57105 6.00684 5.32118 5.61074 5.34205C5.28562 5.35926 5.01946 5.62948 4.99807 5.9649C4.97824 6.27997 5.21569 6.5867 5.52776 6.64095C5.68745 6.6686 5.85288 6.67017 6.00892 6.71086C6.55636 6.85379 6.95715 7.3337 6.98899 7.86683C7.02604 8.48707 6.72545 8.99776 6.17383 9.21894C6.04284 9.27163 5.99066 9.33318 6.00266 9.47194C6.01049 9.56688 6.0037 9.6686 5.97813 9.76041C5.93534 9.91482 5.82157 9.99672 5.65875 9.99359C5.49697 9.99046 5.39208 9.90647 5.34459 9.75154C5.33885 9.73276 5.32789 9.71242 5.33154 9.69521C5.39208 9.37909 5.2136 9.2518 4.95684 9.11096C4.55083 8.88822 4.34417 8.50428 4.33425 8.03167C4.33008 7.81779 4.46159 7.6686 4.64998 7.65973C4.83316 7.65087 4.97511 7.79119 4.99755 8.0035C5.03721 8.3817 5.27466 8.63104 5.62379 8.6613C5.93377 8.68842 6.23176 8.46307 6.31108 8.14122C6.41128 7.73694 6.10286 7.35561 5.66084 7.33735C5.02834 7.31127 4.51899 6.91482 4.37287 6.33527C4.19492 5.62687 4.555 4.99568 5.32371 4.70355V4.70251Z" fill="white"/>
<path d="M5.82396 11.67C5.01715 11.67 4.21035 11.671 3.40354 11.6695C3.15305 11.669 3.00484 11.5468 3.00014 11.3433C2.99597 11.1627 3.08468 11.0458 3.26107 11.0072C3.33622 10.9905 3.41607 10.9905 3.49383 10.9905C5.04899 10.9895 6.60415 10.99 8.15931 10.99C8.2115 10.99 8.26368 10.9879 8.31535 10.9926C8.53297 11.0114 8.66917 11.146 8.665 11.336C8.66135 11.5234 8.51679 11.6653 8.30334 11.6684C7.8608 11.6742 7.41826 11.6705 6.97572 11.6705C6.59162 11.6705 6.20805 11.6705 5.82396 11.6705V11.67Z" fill="white"/>
<path d="M5.83792 12.6557C6.63168 12.6557 7.42544 12.6547 8.2192 12.6573C8.30218 12.6573 8.39141 12.6636 8.46604 12.6944C8.61373 12.7554 8.6847 12.8801 8.66226 13.0393C8.64139 13.1865 8.55372 13.2867 8.40133 13.318C8.3695 13.3242 8.33714 13.33 8.30478 13.33C6.65882 13.3305 5.01233 13.3331 3.36637 13.3289C3.10961 13.3284 2.96766 13.1578 3.00628 12.9297C3.03498 12.7575 3.17536 12.6563 3.3982 12.6557C4.21179 12.6542 5.02486 12.6552 5.83845 12.6552L5.83792 12.6557Z" fill="white"/>
</svg>
