<svg width="1107" height="1218" viewBox="0 0 1107 1218" fill="none" xmlns="http://www.w3.org/2000/svg">
<path d="M799.426 443.5C799.423 277.5 947.077 54 947.077 54L122 12V1203.5L877.427 1218C877.427 1218 1123.85 1033.46 1105.52 851.5C1088.98 687.298 799.429 608.565 799.426 443.5Z" fill="#E9F2FF"/>
<path d="M755.5 447C755.497 254.5 926 22 926 22L66 0V1191.5L836.006 1206C836.006 1206 1110 1040.5 1068.5 839.5C1035.13 677.844 755.503 612.065 755.5 447Z" fill="#D8E7FE"/>
<path d="M687.5 513.5C621 292 902.5 0 902.5 0H0V1191.5L770.006 1206C770.006 1206 1068.81 1096.07 1002.5 839.5C975.5 735 734.964 671.594 687.5 513.5Z" fill="#CADFFF"/>
</svg>
