<svg width="16" height="18" viewBox="0 0 16 18" fill="none" xmlns="http://www.w3.org/2000/svg">
<path d="M16 5.66958C16 4.94702 15.6103 4.28065 14.9805 3.92641L8.9805 0.551515C8.37169 0.209067 7.62831 0.209066 7.0195 0.551515L1.0195 3.92641C0.389734 4.28065 0 4.94702 0 5.66958V12.3302C0 13.0528 0.389717 13.7191 1.01946 14.0734L7.01946 17.4484C7.6283 17.7909 8.3717 17.7909 8.98054 17.4484L14.9805 14.0734C15.6103 13.7191 16 13.0528 16 12.3302V5.66958Z" fill="#191F4F"/>
<path     fillRule="evenodd" clipRule="evenodd" d="M0.322266 4.58082L7.99979 10.0002L15.6773 4.58082C15.5042 4.31413 15.2671 4.08801 14.9803 3.92666L8.98029 0.551758C8.37147 0.20931 7.6281 0.20931 7.01929 0.551758L1.01929 3.92666C0.732429 4.08801 0.495372 4.31413 0.322266 4.58082Z" fill="#4A5BE7"/>
<path     fillRule="evenodd" clipRule="evenodd" d="M8 17.7043V9.99902L0.322478 4.57959C0.115548 4.89839 0 5.27516 0 5.66859V12.3292C0 13.0518 0.389717 13.7181 1.01946 14.0724L7.01946 17.4475C7.32388 17.6187 7.66194 17.7043 8 17.7043Z" fill="#3D4BBD"/>
<path     fillRule="evenodd" clipRule="evenodd" d="M8 17.7043V9.99902L15.6775 4.57959C15.8845 4.89839 16 5.27516 16 5.66859V12.3292C16 13.0518 15.6103 13.7181 14.9805 14.0724L8.98054 17.4475C8.67612 17.6187 8.33806 17.7043 8 17.7043Z" fill="#191F4F"/>
<path d="M4.66602 7.91602L7.99652 10.0004L11.3306 7.91602" stroke="white" strokeWidth="2" strokeLinecap="round" strokeLinejoin="round"/>
<path d="M8 10V13.75" stroke="white" strokeWidth="2" strokeLinecap="round" strokeLinejoin="round"/>
</svg>
