<svg width="12" height="16" viewBox="0 0 12 16" fill="none" xmlns="http://www.w3.org/2000/svg">
<path d="M7.99959 12.6664C7.99959 13.1968 7.78887 13.7055 7.4138 14.0806C7.03873 14.4556 6.53002 14.6664 5.99959 14.6664C5.46915 14.6664 4.96044 14.4556 4.58537 14.0806C4.2103 13.7055 3.99959 13.1968 3.99959 12.6664M6.48025 3.33502L5.50292 3.33302C3.27359 3.32769 1.33825 5.13902 1.32292 7.33302V9.85969C1.32292 10.3864 1.25625 10.9004 0.968919 11.3384L0.777585 11.6304C0.486252 12.073 0.799585 12.6664 1.32292 12.6664H10.6763C11.1996 12.6664 11.5123 12.073 11.2216 11.6304L11.0303 11.3384C10.7436 10.9004 10.6763 10.3857 10.6763 9.85902V7.33369C10.6496 5.13902 8.70959 3.34035 6.48025 3.33502V3.33502Z" stroke="#191F4F" strokeLinecap="round" strokeLinejoin="round"/>
<path d="M5.99959 1.33301C6.35322 1.33301 6.69235 1.47348 6.9424 1.72353C7.19245 1.97358 7.33293 2.31272 7.33293 2.66634V3.33301H4.66626V2.66634C4.66626 2.31272 4.80674 1.97358 5.05678 1.72353C5.30683 1.47348 5.64597 1.33301 5.99959 1.33301Z" stroke="#191F4F" strokeLinecap="round" strokeLinejoin="round"/>
</svg>
