<svg width="13" height="12" viewBox="0 0 13 12" fill="none" xmlns="http://www.w3.org/2000/svg">
<path d="M10.8898 0C10.9293 0.015027 10.9684 0.0306801 11.0081 0.0453941C11.3021 0.15434 11.4978 0.425139 11.4981 0.735384C11.4993 2.0634 11.499 3.39109 11.4984 4.71911C11.4984 4.88941 11.401 4.99742 11.2511 4.99836C11.1052 4.9993 11.0075 4.89818 10.9981 4.73476C10.9956 4.69187 10.9972 4.64898 10.9972 4.60578C10.9972 3.35603 10.9972 2.10628 10.9972 0.856539C10.9972 0.574157 10.9258 0.502152 10.645 0.502152C9.97723 0.502152 9.30947 0.502152 8.64139 0.502152C8.59913 0.502152 8.55686 0.502152 8.49926 0.502152C8.49926 0.557877 8.49926 0.602958 8.49926 0.648353C8.49926 1.82766 8.49832 3.00728 8.50051 4.18659C8.50051 4.30868 8.47922 4.41356 8.36214 4.47241C8.24537 4.53127 8.14675 4.48869 8.04939 4.41512C7.45426 3.96619 6.85725 3.51976 6.25178 3.06582C6.20921 3.09713 6.16569 3.12843 6.12312 3.16037C5.56086 3.58175 4.99922 4.00376 4.43633 4.4242C4.2845 4.53784 4.12296 4.52344 4.04219 4.38256C4.01151 4.32903 4.00243 4.25702 4.00212 4.19316C3.99993 3.01385 4.00055 1.83423 4.00055 0.654927C4.00055 0.608594 4.00055 0.562573 4.00055 0.501839H3.87689C3.19723 0.501839 2.51789 0.501839 1.83823 0.501839C1.57995 0.501839 1.50263 0.579166 1.50263 0.837442C1.50263 3.77835 1.50263 6.71926 1.50263 9.65986C1.50263 9.92127 1.58026 9.99609 1.8495 9.99609C4.27479 9.99609 6.70009 9.99609 9.12539 9.9964C9.17986 9.9964 9.23527 9.9964 9.2888 10.0039C9.41466 10.0224 9.50795 10.136 9.502 10.2575C9.49574 10.3824 9.39618 10.486 9.27065 10.4964C9.23965 10.4989 9.20835 10.4973 9.17704 10.4973C6.72044 10.4973 4.26384 10.492 1.80755 10.502C1.35611 10.5045 0.994525 10.1545 0.99609 9.68647C1.00611 6.76528 1.00611 3.84409 0.99609 0.922595C0.994525 0.454254 1.15106 0.142443 1.61001 0C4.70338 0 7.79643 0 10.8898 0ZM4.50928 3.73765C4.55718 3.7029 4.59036 3.67942 4.62323 3.65501C5.09784 3.29937 5.57213 2.94341 6.04642 2.58778C6.20389 2.46975 6.29718 2.46975 6.4559 2.58903C6.83658 2.87454 7.21696 3.16037 7.59795 3.44588C7.72349 3.54011 7.85028 3.63309 7.99053 3.73703V0.518119H4.50928V3.73765Z" fill="#191F4F"/>
<path d="M12.9982 11.8339C12.9841 11.8514 12.9694 11.8684 12.9563 11.8865C12.8868 11.9826 12.7913 12.0205 12.6795 11.9883C12.5677 11.956 12.5014 11.8746 12.4998 11.7553C12.4964 11.4742 12.4948 11.1931 12.497 10.9119C12.4998 10.5629 12.4698 10.2188 12.3577 9.88542C11.9764 8.74994 10.9508 8.01549 9.7242 8.00047C9.63936 7.99953 9.55421 8.00047 9.43336 8.00047C9.58645 8.13227 9.71355 8.24246 9.84128 8.35235C10.1136 8.58652 10.3873 8.81881 10.6578 9.05549C10.7573 9.14252 10.7761 9.25679 10.7219 9.36229C10.67 9.46341 10.562 9.51726 10.4471 9.49002C10.4035 9.47969 10.3585 9.45715 10.3243 9.42803C9.74423 8.93527 9.16538 8.44095 8.58747 7.94537C8.46193 7.83767 8.45974 7.6633 8.58496 7.55561C9.16194 7.05909 9.74079 6.56476 10.3203 6.07138C10.4455 5.96462 10.5995 5.97683 10.6941 6.09235C10.7839 6.20192 10.7664 6.35 10.6446 6.4555C10.2664 6.78234 9.88668 7.10667 9.50756 7.43226C9.49034 7.44697 9.47375 7.46294 9.43368 7.49925C9.55389 7.49925 9.64844 7.49925 9.7433 7.49925C10.5131 7.49925 11.2003 7.73969 11.7948 8.2265C12.4704 8.77968 12.8658 9.49315 12.9754 10.3619C12.9791 10.3923 12.9904 10.4214 12.9982 10.4514V11.8339Z" fill="#191F4F"/>
</svg>
