<svg width="30" height="24" viewBox="0 0 30 24" fill="none" xmlns="http://www.w3.org/2000/svg">
<path d="M0 8.84524C0.134458 8.64202 0.279612 8.44568 0.398026 8.2333C0.449212 8.14239 0.463728 8.02016 0.463728 7.91244C0.467547 5.91619 0.465255 3.91919 0.466783 1.92294C0.467547 0.987083 0.972529 0.288818 1.81671 0.0634476C1.9802 0.0199015 2.15515 0.00538617 2.32475 0.0046222C3.04975 -0.0022535 3.77399 3.84039e-05 4.49823 0.0023303C4.86112 0.00309427 5.05669 0.153596 5.0628 0.425568C5.06968 0.704415 4.85577 0.873252 4.48907 0.873252C3.75489 0.87478 3.02072 0.868668 2.28731 0.876308C1.75025 0.881655 1.36139 1.25676 1.3591 1.79383C1.35146 3.79007 1.35604 5.78708 1.35604 7.78333C1.35604 7.82 1.36521 7.85743 1.37208 7.91167H2.38205C2.80376 7.16222 2.53408 6.4334 2.38052 5.70305C2.34538 5.53574 2.3003 5.36843 2.28426 5.19806C2.22849 4.6121 2.63798 4.19116 3.22241 4.26297C3.61738 4.3111 4.00242 4.44556 4.39739 4.48834C4.76027 4.5273 5.14302 4.55633 5.49444 4.48146C6.05902 4.36229 6.61977 4.3027 7.19351 4.32256C7.36463 4.32867 7.53576 4.32332 7.71911 4.32332C7.7428 4.23852 7.76495 4.16747 7.78405 4.0949C8.04762 3.0857 8.93764 2.38056 9.98122 2.37445C11.2677 2.36681 12.555 2.36528 13.8415 2.37445C15.1059 2.38361 16.1006 3.38135 16.1205 4.65183C16.1311 5.32947 16.122 6.00711 16.122 6.70231C16.74 6.78711 17.1594 7.12402 17.3734 7.69547C17.6048 8.31428 17.4811 8.89795 17.1403 9.44343C16.9035 9.82235 16.5903 10.1211 16.19 10.3312C16.1059 10.3755 16.0272 10.4824 16.0013 10.5764C15.8042 11.2884 15.4657 11.9156 14.9692 12.4664C14.8614 12.5856 14.8523 12.7942 14.7789 13.0196C15.3695 13.0196 15.8722 13.0302 16.3733 13.0173C17.232 12.9943 18.0724 13.0921 18.8509 13.4642C19.362 13.7086 19.8387 14.0234 20.3559 14.3221C20.4116 14.0624 20.5255 13.7713 20.5285 13.4802C20.5484 11.7521 20.5515 10.0233 20.5369 8.29518C20.5346 7.97661 20.4353 7.65651 20.3666 7.34099C20.2382 6.7535 20.4689 6.21185 20.5652 5.65262C20.5919 5.49525 20.6271 5.3394 20.6668 5.13695C20.1863 5.23703 19.7424 5.31801 19.3039 5.42343C18.7546 5.55484 18.2458 5.39135 17.7424 5.22175C17.5093 5.14306 17.4582 4.9238 17.517 4.6969C17.572 4.48299 17.805 4.33555 18.0372 4.42264C18.7225 4.67857 19.3864 4.54105 20.0541 4.36763C20.155 4.34166 20.2566 4.31645 20.3589 4.29353C21.1901 4.11018 21.676 4.59071 21.5056 5.42878C21.4445 5.72749 21.4094 6.03461 21.3147 6.32262C21.1328 6.87268 21.2352 7.39218 21.4216 7.93154C21.5377 7.93154 21.6615 7.93765 21.7837 7.93077C23.5302 7.82993 23.8999 8.25546 23.8617 10.0156C23.8105 12.374 23.8487 14.7347 23.8487 17.0938C23.8487 17.1984 23.8487 17.3039 23.8487 17.4605C23.9404 17.3925 24.0069 17.3512 24.0642 17.3001C24.6876 16.7378 25.3117 16.1763 25.9305 15.6086C26.4653 15.1182 26.5891 14.4673 26.269 13.8141C25.9252 13.1128 25.5837 12.4091 25.2178 11.7193C24.7273 10.7964 24.7617 9.9125 25.3453 9.04769C25.3935 8.97664 25.434 8.90177 25.476 8.83072C25.4638 8.80781 25.4592 8.78489 25.4454 8.77648C24.5241 8.18746 24.1444 7.33564 24.1696 6.25463C24.1956 5.15681 24.1734 4.05746 24.1757 2.95888C24.1772 2.25756 24.4668 1.96725 25.162 1.9642C25.5233 1.96267 25.8855 1.9642 26.2728 1.9642V0.873252H25.9069C19.5682 0.873252 13.2296 0.873252 6.89021 0.873252C6.80465 0.873252 6.71832 0.877072 6.63275 0.871724C6.35696 0.854917 6.17285 0.669273 6.18201 0.419456C6.19042 0.181098 6.36537 0.0183736 6.63657 0.00309427C6.73131 -0.00225349 6.8268 0.00080237 6.9223 0.00080237C14.138 0.00080237 21.3536 0.00080237 28.5693 0.00080237C28.6648 0.00080237 28.7603 -0.00301746 28.855 0.0046222C29.1224 0.0252493 29.2874 0.197142 29.2828 0.443139C29.2775 0.684552 29.1033 0.864848 28.839 0.869432C28.2965 0.877836 27.7534 0.871724 27.1888 0.871724V1.95961C27.5792 1.95961 27.9665 1.95656 28.3546 1.95961C28.9788 1.96572 29.2836 2.27131 29.2836 2.89241C29.2844 4.11476 29.2874 5.33787 29.2836 6.56022C29.2782 8.0469 28.0116 9.21576 26.5364 9.10957C26.4569 9.10422 26.34 9.13096 26.2972 9.18673C25.7625 9.87965 25.5501 10.594 26.0474 11.4267C26.4134 12.0386 26.6976 12.6994 27.0161 13.3389C27.5662 14.4436 27.366 15.4864 26.4516 16.313C25.6448 17.0418 24.8358 17.7691 24.0405 18.5109C23.9389 18.6057 23.8602 18.7799 23.8587 18.9181C23.8449 20.3032 23.8503 21.6883 23.8487 23.0733C23.8487 23.7181 23.5745 23.9916 22.9236 23.9916C15.5933 23.9924 8.26306 23.9901 0.932803 23.9977C0.471367 23.9977 0.171892 23.8205 0.000763966 23.4026C0.000763966 18.5499 0.000763966 13.6964 0.000763966 8.84371L0 8.84524ZM22.9541 23.1123C22.9541 22.4927 22.9702 21.9022 22.9495 21.3124C22.9266 20.6562 22.6631 20.0839 22.2001 19.6271C20.6737 18.1221 18.8356 17.2305 16.6972 17.1709C13.869 17.0915 11.037 17.1427 8.20652 17.1366C8.09269 17.1366 7.97581 17.1396 7.8658 17.1175C7.64195 17.0716 7.51284 16.9181 7.51055 16.6942C7.50826 16.4689 7.64577 16.3191 7.86274 16.2656C7.96206 16.2412 8.0713 16.2504 8.1752 16.2504C10.8055 16.2504 13.4359 16.2481 16.0662 16.2504C17.8264 16.2519 19.472 16.6843 20.9923 17.5835C21.0679 17.6286 21.1466 17.6683 21.2574 17.7294C21.2352 17.6003 21.2283 17.5147 21.2062 17.4337C20.7211 15.7102 19.6316 14.575 17.9158 14.0547C17.1999 13.8378 16.4635 13.8905 15.7316 13.8867C15.4405 13.8851 15.1495 13.8867 14.8523 13.8867C14.8408 13.9921 14.8339 14.0578 14.8263 14.1235C14.753 14.7813 14.2663 15.2457 13.6047 15.2526C12.4802 15.2641 11.3556 15.2633 10.231 15.2526C9.74745 15.248 9.36164 15.0288 9.14391 14.5887C9.04154 14.3817 9.00716 14.1418 8.93306 13.8874C8.37995 13.8874 7.80086 13.8889 7.22101 13.8874C6.08423 13.8844 5.06815 14.2289 4.19035 14.957C3.32325 15.6759 2.78618 16.5919 2.56311 17.7439C2.67312 17.6851 2.74646 17.6492 2.81598 17.6072C3.72128 17.064 4.6877 16.6782 5.72287 16.4666C6.072 16.3955 6.2989 16.5055 6.34932 16.7722C6.40356 17.0571 6.24772 17.2366 5.90775 17.3245C5.49445 17.4315 5.07732 17.5331 4.677 17.679C3.58071 18.0778 2.6204 18.7019 1.76171 19.4926C0.659303 20.5087 0.896896 21.8281 0.891549 23.1123H22.9541ZM11.9637 12.9057C12.0875 12.8935 12.2487 12.8782 12.4099 12.8606C12.4664 12.8545 12.5229 12.8461 12.5779 12.8324C14.0524 12.4687 14.9248 11.5321 15.2067 10.0431C15.2526 9.80173 15.3466 9.64511 15.601 9.58705C16.1999 9.45106 16.6621 8.80781 16.5895 8.1974C16.572 8.0469 16.4925 7.88875 16.4016 7.76423C16.2946 7.61907 16.1686 7.54573 15.986 7.73138C15.724 7.998 15.3542 7.87195 15.2702 7.50448C15.2365 7.3578 15.2404 7.20195 15.2304 7.04992C15.1777 6.19886 14.497 5.52428 13.646 5.51511C12.4931 5.50212 11.3403 5.49983 10.1883 5.51664C9.50603 5.52657 9.0064 5.87647 8.74283 6.49986C8.63205 6.7619 8.65497 7.07819 8.57705 7.35933C8.52968 7.52816 8.43953 7.71992 8.30737 7.82076C8.13777 7.95064 7.95747 7.83833 7.79857 7.70311C7.73974 7.65269 7.5732 7.64428 7.51972 7.69089C7.41047 7.78485 7.31039 7.91778 7.26685 8.05453C7.08655 8.61911 7.56556 9.44113 8.16833 9.57177C8.47697 9.63824 8.59538 9.80402 8.6374 10.0913C8.87118 11.6918 10.3051 12.9149 11.9652 12.9057H11.9637ZM7.71148 5.15299C7.04148 5.21029 6.39134 5.21334 5.76489 5.33558C5.24998 5.43642 4.7618 5.50289 4.24842 5.36385C3.89852 5.26911 3.53793 5.21487 3.15671 5.13771C3.20866 5.38065 3.24151 5.57852 3.29422 5.77104C3.49515 6.50979 3.57231 7.24702 3.32554 7.99342C3.27589 8.14392 3.26214 8.31276 3.26137 8.47319C3.25679 10.0294 3.24533 11.5848 3.26901 13.141C3.27512 13.5459 3.39507 13.9485 3.46917 14.3932C3.56696 14.3244 3.59905 14.3053 3.62808 14.2816C4.42718 13.6269 5.33019 13.183 6.35849 13.083C7.11405 13.0096 7.87878 13.0364 8.63969 13.0196C8.7497 13.0173 8.85972 13.0196 8.95903 13.0196C9.02168 12.7483 8.97737 12.5665 8.80318 12.3839C8.34175 11.9003 8.03234 11.3205 7.8658 10.6734C7.81614 10.4801 7.73439 10.3716 7.55715 10.2739C6.90167 9.91326 6.50288 9.34487 6.36766 8.61223C6.28973 8.19052 6.36613 7.77492 6.59914 7.40211C6.85583 6.99109 7.23247 6.7619 7.71224 6.70537V5.15375L7.71148 5.15299ZM0.863282 19.1343C1.06344 18.9495 1.2063 18.7997 1.36826 18.6737C1.53557 18.5423 1.61808 18.3963 1.63183 18.1725C1.68149 17.3528 1.92367 16.5873 2.30871 15.8607C2.59137 15.3275 2.71514 14.766 2.53484 14.1563C2.45233 13.8767 2.40955 13.575 2.40649 13.2831C2.39045 11.908 2.39503 10.5328 2.39198 9.1577C2.39198 9.04616 2.39198 8.93539 2.39198 8.79482C2.05201 8.79482 1.74948 8.79482 1.44695 8.79482C0.95343 8.79482 0.863282 8.88497 0.863282 9.37772C0.863282 12.5192 0.863282 15.6613 0.863282 18.8028V19.1343ZM22.5019 18.679C22.8785 18.4834 22.9984 18.1878 22.9954 17.7531C22.9732 14.9768 22.9839 12.1998 22.9839 9.42356C22.9839 9.32807 23.0145 9.21271 22.9725 9.14166C22.8968 9.01484 22.7845 8.83072 22.6738 8.82003C22.2727 8.78107 21.8655 8.80475 21.4461 8.80475C21.4461 8.94379 21.4461 9.04845 21.4461 9.15235C21.4461 10.4312 21.459 11.7093 21.4384 12.9882C21.4323 13.3931 21.3666 13.8041 21.2772 14.1999C21.1458 14.7797 21.2352 15.3191 21.5041 15.8279C21.883 16.5445 22.1489 17.2932 22.1856 18.106C22.1978 18.3727 22.2727 18.5644 22.5026 18.6782L22.5019 18.679ZM25.0535 4.89783C25.0535 5.51969 25.0252 6.12017 25.0604 6.71683C25.1055 7.47316 25.7548 8.1294 26.4821 8.2165C27.3003 8.31428 28.0887 7.84292 28.3149 7.08277C28.528 6.36693 28.3836 5.632 28.4203 4.89706H25.0535V4.89783ZM15.1953 5.21182C15.4061 4.05976 14.8141 3.26294 13.756 3.24919C12.5283 3.23314 11.3006 3.23849 10.0729 3.24842C9.37616 3.25377 8.84444 3.60825 8.67331 4.20949C8.58469 4.5189 8.59004 4.85581 8.5526 5.18049L8.61983 5.22557C9.33108 4.59988 10.1867 4.60293 11.0485 4.61669C11.7338 4.62738 12.419 4.63044 13.1043 4.61592C13.8522 4.59988 14.5658 4.69079 15.1968 5.21258L15.1953 5.21182ZM28.4043 4.00857V2.84428H25.0642V4.00857H28.4043ZM9.87961 13.261C9.87961 13.552 9.87197 13.7988 9.8819 14.0448C9.89031 14.2488 10.0133 14.3611 10.2142 14.3618C11.3472 14.3657 12.4802 14.3657 13.6123 14.3618C13.8125 14.3618 13.9401 14.2457 13.9531 14.0478C13.9691 13.7957 13.9569 13.5421 13.9569 13.2533C12.594 13.947 11.2601 13.9455 9.87885 13.2602L9.87961 13.261Z" fill="black"/>
<path d="M11.8281 10.7835C11.5905 10.7835 11.353 10.7896 11.1154 10.7819C10.8266 10.7728 10.6493 10.6077 10.6409 10.3572C10.6325 10.1012 10.7945 9.91253 11.084 9.90337C11.5967 9.88656 12.1108 9.88579 12.6227 9.90337C12.9084 9.9133 13.0696 10.1119 13.0551 10.3679C13.0413 10.6062 12.8679 10.7712 12.5975 10.7812C12.3415 10.7903 12.0841 10.7835 11.8281 10.7835Z" fill="black"/>
<path d="M10.1501 8.58975C9.8682 8.58745 9.62144 8.33382 9.62908 8.05421C9.63672 7.77536 9.89723 7.52783 10.1723 7.53929C10.4389 7.55075 10.6772 7.79599 10.6795 8.06185C10.6818 8.34146 10.4305 8.59204 10.1501 8.58975Z" fill="black"/>
<path d="M13.676 8.58212C13.3865 8.57906 13.1527 8.33841 13.1603 8.05116C13.1672 7.76773 13.4209 7.52784 13.7005 7.5393C13.9747 7.55076 14.1947 7.78301 14.1963 8.06186C14.197 8.36133 13.9732 8.58517 13.676 8.58212Z" fill="black"/>
</svg>
