<svg width="12" height="12" viewBox="0 0 12 12" fill="none" xmlns="http://www.w3.org/2000/svg">
<path d="M6.3939 12H5.59697C5.45079 11.9818 5.30403 11.9666 5.15814 11.9452C3.99842 11.7752 2.9605 11.3252 2.08344 10.5462C0.468453 9.11085 -0.206368 7.30419 0.0545786 5.16408C0.196059 4.00523 0.663649 2.97054 1.44062 2.0973C2.96403 0.385151 4.87577 -0.283212 7.12742 0.108648C8.62148 0.368713 9.827 1.15038 10.7575 2.34768C11.3569 3.11877 11.7399 3.98908 11.9031 4.95362C11.9395 5.16818 11.9651 5.38451 11.9959 5.60026V6.39719C11.9882 6.43505 11.978 6.47262 11.973 6.51078C11.9451 6.71919 11.9298 6.92994 11.8893 7.13599C11.6384 8.41578 11.0357 9.50359 10.0821 10.3924C9.21881 11.1969 8.20526 11.7068 7.03995 11.9073C6.82568 11.9443 6.60964 11.9692 6.39419 11.9997L6.3939 12ZM5.99617 11.297C8.9109 11.2962 11.2973 8.90743 11.2929 5.99535C11.2882 3.08179 8.9153 0.707444 6.00086 0.700693C3.09054 0.693942 0.701514 3.08003 0.698285 5.99652C0.69535 8.90949 3.08232 11.2976 5.99617 11.297Z" fill="#191F4F"/>
<path d="M4.5162 6.00007C4.5162 5.20755 4.51532 4.41532 4.51679 3.62279C4.51708 3.38533 4.64946 3.23416 4.85493 3.22859C5.0469 3.2233 5.20041 3.35832 5.21979 3.55059C5.22214 3.57377 5.22155 3.59726 5.22155 3.62074C5.22155 5.20549 5.22184 6.79054 5.22155 8.3753C5.22155 8.61805 5.07478 8.77479 4.85699 8.7698C4.67471 8.7654 4.52677 8.63067 4.5206 8.44751C4.51297 8.2212 4.51649 7.99489 4.5162 7.76828C4.51591 7.17888 4.5162 6.58948 4.5162 6.00007Z" fill="#191F4F"/>
<path d="M7.47538 5.99694C7.47538 6.78946 7.47626 7.58169 7.47479 8.37422C7.4745 8.61198 7.34241 8.76285 7.13694 8.76901C6.94497 8.77459 6.79146 8.63957 6.7715 8.4476C6.76944 8.42823 6.76974 8.40856 6.76974 8.38919C6.76974 6.79651 6.76915 5.20383 6.77003 3.61114C6.77003 3.37339 6.9256 3.21811 7.14545 3.22897C7.32274 3.23778 7.46452 3.37104 7.47068 3.5498C7.47802 3.76437 7.47479 3.97923 7.47509 4.1938C7.47538 4.79494 7.47509 5.39609 7.47509 5.99723L7.47538 5.99694Z" fill="#191F4F"/>
</svg>
