<svg width="19" height="20" viewBox="0 0 19 20" fill="none" xmlns="http://www.w3.org/2000/svg">
<path d="M0 20V7.87991H0.251962C2.05063 7.87991 3.8489 7.87794 5.64757 7.88344C5.79121 7.88383 5.86224 7.83595 5.93642 7.71468C7.24725 5.56476 9.13187 4.24137 11.6166 3.78768C11.77 3.75981 11.9243 3.73626 12.0969 3.70801V0C13.9525 1.85557 15.8151 3.71821 17.6947 5.59772C16.9757 6.3124 16.2084 7.07496 15.4015 7.87716H18.2681V8.13226C18.2681 12.0169 18.2681 15.9015 18.2673 19.7865C18.2673 19.8575 18.2559 19.9286 18.2496 19.9996H0V20ZM12.095 9.08399C12.0349 9.07849 12.0027 9.073 11.9706 9.073C10.9505 9.07261 9.93014 9.06947 8.91012 9.07732C8.82653 9.0781 8.72096 9.13226 8.66287 9.19545C7.06711 10.9403 6.40306 12.9929 6.65934 15.3418C6.69388 15.6593 6.75981 15.9733 6.81122 16.2892C4.896 14.19 4.53061 11.7586 5.26923 9.08673H1.18721V18.8132H17.064V9.07221C16.9851 9.07221 16.9207 9.07221 16.856 9.07221C16.0385 9.07221 15.221 9.07575 14.4035 9.06868C14.259 9.0675 14.1613 9.11499 14.0624 9.21468C13.4698 9.81515 12.8717 10.4097 12.2747 11.0059C12.2284 11.0522 12.1778 11.0942 12.095 11.1695V9.08359V9.08399ZM6.02316 11.4297C6.50628 9.84027 7.40071 8.53964 8.74097 7.55651C10.0891 6.56711 11.6134 6.14325 13.3002 6.16091V8.25196C14.2194 7.33242 15.1268 6.42425 15.9929 5.55769C15.1005 4.66248 14.1954 3.75471 13.2947 2.85086C13.2947 2.89757 13.2947 2.96782 13.2947 3.03846C13.2947 3.58124 13.2908 4.12402 13.2975 4.6668C13.2991 4.80298 13.2571 4.84615 13.1205 4.8489C12.8136 4.8544 12.5043 4.85911 12.2005 4.89717C10.2229 5.14639 8.61695 6.05887 7.40581 7.64286C6.55377 8.75706 6.104 10.0263 6.02316 11.4294V11.4297ZM12.0887 7.38893C11.582 7.53297 11.1024 7.66954 10.6228 7.80612C10.6276 7.82614 10.6323 7.84615 10.637 7.86656H12.0891V7.38893H12.0887Z" fill="#191F4F"/>
</svg>
