<svg xmlns="http://www.w3.org/2000/svg">
    <defs>
        <symbol id="icon-pound" viewBox="0 0 8 12">
            <title>Pound</title>
            <path
                d="M0 6.585H1.969C2.084 7.05 2.155 7.524 2.155 8.015C2.155 9.4 1.419 10.511 0.0799999 10.786V12H8V10.76H2.492V10.631C3.317 10.106 3.627 9.185 3.627 7.937C3.627 7.472 3.557 7.024 3.459 6.585H6.749V5.613H3.22C3.034 4.89 2.848 4.158 2.848 3.366C2.848 2.092 3.895 1.3 5.428 1.3C6.15337 1.31 6.86904 1.46824 7.531 1.765V0.456C6.84103 0.159934 6.0988 0.00489154 5.348 0C2.865 0 1.322 1.291 1.322 3.366C1.322 4.141 1.517 4.881 1.721 5.613H0V6.585Z"
                fill="currentColor" />
        </symbol>
    </defs>
</svg>
