<svg width="14" height="14" viewBox="0 0 14 14" fill="none" xmlns="http://www.w3.org/2000/svg">
<path d="M0.5 0C0.367392 0 0.240215 0.0526785 0.146447 0.146447C0.0526785 0.240215 0 0.367392 0 0.5V4.5C0 4.63261 0.0526785 4.75979 0.146447 4.85355C0.240215 4.94732 0.367392 5 0.5 5C0.632608 5 0.759785 4.94732 0.853553 4.85355C0.947321 4.75979 1 4.63261 1 4.5V1.707L4.146 4.854C4.23989 4.94789 4.36722 5.00063 4.5 5.00063C4.63278 5.00063 4.76011 4.94789 4.854 4.854C4.94789 4.76011 5.00063 4.63278 5.00063 4.5C5.00063 4.36722 4.94789 4.23989 4.854 4.146L1.707 1H4.5C4.63261 1 4.75979 0.947321 4.85355 0.853553C4.94732 0.759785 5 0.632608 5 0.5C5 0.367392 4.94732 0.240215 4.85355 0.146447C4.75979 0.0526785 4.63261 0 4.5 0H0.5ZM0.5 14C0.367392 14 0.240215 13.9473 0.146447 13.8536C0.0526785 13.7598 0 13.6326 0 13.5V9.5C0 9.36739 0.0526785 9.24021 0.146447 9.14645C0.240215 9.05268 0.367392 9 0.5 9C0.632608 9 0.759785 9.05268 0.853553 9.14645C0.947321 9.24021 1 9.36739 1 9.5V12.293L4.146 9.146C4.23989 9.05211 4.36722 8.99937 4.5 8.99937C4.63278 8.99937 4.76011 9.05211 4.854 9.146C4.94789 9.23989 5.00063 9.36722 5.00063 9.5C5.00063 9.63278 4.94789 9.76011 4.854 9.854L1.707 13H4.5C4.63261 13 4.75979 13.0527 4.85355 13.1464C4.94732 13.2402 5 13.3674 5 13.5C5 13.6326 4.94732 13.7598 4.85355 13.8536C4.75979 13.9473 4.63261 14 4.5 14H0.5ZM14 0.5C14 0.367392 13.9473 0.240215 13.8536 0.146447C13.7598 0.0526785 13.6326 0 13.5 0H9.5C9.36739 0 9.24021 0.0526785 9.14645 0.146447C9.05268 0.240215 9 0.367392 9 0.5C9 0.632608 9.05268 0.759785 9.14645 0.853553C9.24021 0.947321 9.36739 1 9.5 1H12.293L9.146 4.146C9.05211 4.23989 8.99937 4.36722 8.99937 4.5C8.99937 4.63278 9.05211 4.76011 9.146 4.854C9.23989 4.94789 9.36722 5.00063 9.5 5.00063C9.63278 5.00063 9.76011 4.94789 9.854 4.854L13 1.707V4.5C13 4.63261 13.0527 4.75979 13.1464 4.85355C13.2402 4.94732 13.3674 5 13.5 5C13.6326 5 13.7598 4.94732 13.8536 4.85355C13.9473 4.75979 14 4.63261 14 4.5V0.5ZM13.5 14C13.6326 14 13.7598 13.9473 13.8536 13.8536C13.9473 13.7598 14 13.6326 14 13.5V9.5C14 9.36739 13.9473 9.24021 13.8536 9.14645C13.7598 9.05268 13.6326 9 13.5 9C13.3674 9 13.2402 9.05268 13.1464 9.14645C13.0527 9.24021 13 9.36739 13 9.5V12.293L9.854 9.146C9.76011 9.05211 9.63278 8.99937 9.5 8.99937C9.36722 8.99937 9.23989 9.05211 9.146 9.146C9.05211 9.23989 8.99937 9.36722 8.99937 9.5C8.99937 9.63278 9.05211 9.76011 9.146 9.854L12.293 13H9.5C9.36739 13 9.24021 13.0527 9.14645 13.1464C9.05268 13.2402 9 13.3674 9 13.5C9 13.6326 9.05268 13.7598 9.14645 13.8536C9.24021 13.9473 9.36739 14 9.5 14H13.5Z" fill="white"/>
</svg>
