<svg width="21" height="18" viewBox="0 0 21 18" fill="none" xmlns="http://www.w3.org/2000/svg">
<path d="M20.0291 0.943758V17.0617C20.0068 17.1141 19.9818 17.1658 19.9622 17.219C19.7874 17.6962 19.3649 17.999 18.8575 17.999C12.9622 17.9998 7.06731 17.9998 1.17202 17.999C0.665029 17.999 0.242931 17.697 0.0665029 17.2194C0.0465521 17.1658 0.022298 17.1141 0 17.0613C0 11.6891 0 6.31641 0 0.943758C0.0266012 0.87882 0.0516376 0.813099 0.0798035 0.748943C0.273053 0.303765 0.608306 0.0463594 1.09456 0.00958719C1.3148 -0.00723414 1.53778 0.00215451 1.7592 0.00724003C1.99431 0.0123255 2.1543 0.179365 2.15039 0.404302C2.14648 0.61985 1.98883 0.778674 1.76311 0.785716C1.60037 0.790801 1.43725 0.785716 1.27412 0.78728C0.929476 0.789236 0.783561 0.932413 0.782388 1.27314C0.780823 1.75548 0.781996 2.23783 0.781996 2.72017C0.781996 2.85474 0.781996 2.98892 0.781996 3.11567C0.819551 3.12662 0.831287 3.13288 0.843414 3.13288C2.26423 3.13366 3.68544 3.14227 5.10625 3.13053C5.72434 3.12545 6.19377 2.65914 6.25597 2.03871C6.29353 1.66316 6.39641 1.57045 6.77704 1.57045C10.8509 1.57045 14.9248 1.57045 18.9987 1.57045H19.2393C19.2819 0.988354 19.2283 0.778674 18.5324 0.78063C14.1393 0.792757 9.74581 0.786889 5.3527 0.786498C5.06205 0.786498 4.89383 0.643712 4.89149 0.399999C4.88953 0.154329 5.05814 0.00606645 5.34488 0.00606645C9.84909 0.00606645 14.3533 0.00528406 18.8571 0.00684883C19.3218 0.00684883 19.6641 0.227091 19.8918 0.6265C19.9485 0.726254 19.9841 0.838136 20.0299 0.944149L20.0291 0.943758ZM0.781605 3.91644C0.781605 3.99429 0.781605 4.04592 0.781605 4.09717C0.781605 8.3025 0.781605 12.5074 0.781605 16.7128C0.781605 17.0801 0.922044 17.219 1.2929 17.219C7.10173 17.219 12.9106 17.219 18.719 17.219C19.1153 17.219 19.2467 17.0868 19.2467 16.6897C19.2467 11.9825 19.2467 7.27523 19.2467 2.56839V2.35753H7.01684C7.00393 2.39157 6.98907 2.42051 6.98124 2.45142C6.78447 3.25297 6.00326 3.94617 4.96933 3.92309C3.73786 3.89571 2.5052 3.91683 1.27294 3.91683C1.11764 3.91683 0.961945 3.91683 0.781214 3.91683L0.781605 3.91644Z" fill="#191F4F"/>
<path d="M3.91252 0.395931C3.9133 0.618129 3.74196 0.789472 3.51976 0.788298C3.29795 0.787124 3.12935 0.613434 3.13287 0.390454C3.13639 0.176471 3.30147 0.011387 3.51545 0.00786627C3.73765 0.00434553 3.91173 0.174124 3.91252 0.395539V0.395931Z" fill="#191F4F"/>
<path d="M1.9839 1.57108C2.2018 1.58399 2.3618 1.7702 2.34615 1.99279C2.33128 2.20247 2.15329 2.35894 1.93892 2.35073C1.71946 2.34212 1.55633 2.16139 1.56689 1.93802C1.57745 1.71895 1.76053 1.55778 1.9839 1.57108Z" fill="#191F4F"/>
<path d="M3.13281 1.96113C3.13242 1.73893 3.30416 1.56837 3.52675 1.57033C3.74073 1.57229 3.90816 1.73659 3.91285 1.94979C3.91794 2.17238 3.74933 2.34802 3.52831 2.35076C3.30611 2.3535 3.1332 2.18333 3.13281 1.96152V1.96113Z" fill="#191F4F"/>
<path d="M5.47939 1.96229C5.47822 2.18371 5.30453 2.35388 5.08233 2.35036C4.8613 2.34723 4.69387 2.17119 4.69935 1.9486C4.70443 1.7354 4.87226 1.57188 5.08663 1.57032C5.30883 1.56914 5.48056 1.7401 5.47978 1.96229H5.47939Z" fill="#191F4F"/>
<path d="M2.34774 5.48107C2.34774 5.86562 2.34852 6.22864 2.34774 6.59167C2.34696 6.87764 2.1987 7.04702 1.9542 7.04546C1.71088 7.04389 1.5677 6.8749 1.56731 6.58541C1.56653 6.10346 1.56574 5.6219 1.56731 5.13995C1.56848 4.84382 1.71323 4.70103 2.01327 4.70025C2.50148 4.69908 2.99008 4.69869 3.47829 4.70025C3.74665 4.70103 3.91408 4.85516 3.91213 5.0934C3.91017 5.33007 3.74274 5.47912 3.47164 5.48029C3.10744 5.48186 2.74324 5.48029 2.34813 5.48029L2.34774 5.48107Z" fill="#191F4F"/>
<path d="M17.6855 5.48068C17.2979 5.48068 16.9344 5.48146 16.571 5.48068C16.2866 5.4799 16.1176 5.32929 16.1211 5.08362C16.1243 4.84695 16.2913 4.70103 16.5648 4.70025C17.053 4.69908 17.5416 4.69869 18.0298 4.70025C18.3157 4.70142 18.4644 4.84773 18.4656 5.13056C18.4675 5.62542 18.4675 6.12028 18.4656 6.61514C18.4644 6.88194 18.3075 7.04898 18.0685 7.04546C17.8389 7.04194 17.6875 6.87685 17.6859 6.62062C17.6836 6.25016 17.6855 5.8797 17.6855 5.48107V5.48068Z" fill="#191F4F"/>
<path d="M2.34816 15.6547C2.73975 15.6547 3.10356 15.6535 3.46737 15.6547C3.7412 15.6558 3.90863 15.801 3.91255 16.0369C3.91646 16.2821 3.74707 16.4343 3.46346 16.4347C2.97525 16.4359 2.48664 16.4367 1.99844 16.4347C1.71521 16.4335 1.5689 16.2849 1.56773 15.9993C1.56617 15.5045 1.56577 15.0096 1.56773 14.5147C1.5689 14.2581 1.7203 14.0938 1.95032 14.0899C2.18973 14.0864 2.34582 14.2526 2.34738 14.5198C2.34934 14.8899 2.34777 15.26 2.34777 15.6543L2.34816 15.6547Z" fill="#191F4F"/>
<path d="M17.6855 15.6543C17.6855 15.2627 17.6848 14.8989 17.6855 14.5351C17.6863 14.2609 17.8307 14.0942 18.0674 14.0899C18.313 14.0856 18.4652 14.255 18.4656 14.5382C18.4668 15.0264 18.4675 15.515 18.4656 16.0033C18.4644 16.2869 18.3161 16.4336 18.0306 16.4347C17.5357 16.4367 17.0409 16.4367 16.546 16.4347C16.2898 16.4336 16.1247 16.2818 16.1212 16.0522C16.1172 15.8124 16.2835 15.6567 16.5507 15.6551C16.9208 15.6531 17.2908 15.6547 17.6852 15.6547L17.6855 15.6543Z" fill="#191F4F"/>
<path d="M15.1356 16.0401C15.1367 16.2623 14.965 16.434 14.7432 16.4328C14.5218 16.4317 14.352 16.258 14.3555 16.0354C14.3587 15.8218 14.5241 15.6559 14.7381 15.6524C14.9607 15.6489 15.1344 15.8183 15.1356 16.0397V16.0401Z" fill="#191F4F"/>
<path d="M9.97783 14.1063C7.55047 14.0101 5.64223 12.9605 4.31412 10.8782C4.17799 10.665 4.17603 10.4803 4.31138 10.2652C5.44506 8.46568 7.05561 7.34921 9.16532 7.11176C11.9643 6.79685 14.1519 7.88593 15.7029 10.2444C15.8504 10.469 15.8512 10.6634 15.7065 10.8911C14.5708 12.6796 12.9587 13.7323 10.8639 14.0402C10.5814 14.0817 10.2931 14.0836 9.97744 14.1063H9.97783ZM9.99621 13.3177C12.021 13.2437 13.6398 12.4226 14.8357 10.7847C14.9499 10.6278 14.9573 10.5187 14.8396 10.361C13.506 8.57522 11.7394 7.69268 9.50644 7.87028C7.67174 8.01659 6.23684 8.90617 5.16497 10.3954C5.07539 10.5198 5.06834 10.6094 5.16067 10.7385C6.35029 12.3999 7.97491 13.2355 9.99621 13.3177Z" fill="#191F4F"/>
<path d="M11.969 10.5845C11.9655 11.665 11.0821 12.5296 9.98797 12.5237C8.91845 12.5178 8.05508 11.6357 8.0586 10.5521C8.06213 9.47081 8.94427 8.60744 10.0396 8.61331C11.1103 8.61918 11.9721 9.49976 11.9686 10.5845H11.969ZM10.0052 11.7421C10.6374 11.7479 11.1776 11.2171 11.187 10.5822C11.1964 9.95041 10.6686 9.40861 10.0322 9.3957C9.39336 9.38279 8.84334 9.92264 8.8406 10.565C8.83786 11.1979 9.37067 11.7366 10.0052 11.7421Z" fill="#191F4F"/>
</svg>
