<svg width="23" height="28" viewBox="0 0 23 28" fill="none" xmlns="http://www.w3.org/2000/svg">
<path d="M11 4C11 3.20888 11.2346 2.43552 11.6741 1.77772C12.1137 1.11992 12.7384 0.607234 13.4693 0.304484C14.2002 0.00173312 15.0045 -0.0774802 15.7804 0.0768607C16.5563 0.231202 17.269 0.612165 17.8284 1.17157C18.3879 1.73098 18.7688 2.44372 18.9232 3.21964C19.0775 3.99556 18.9983 4.79983 18.6955 5.53074C18.3928 6.26164 17.8801 6.88635 17.2223 7.32588C16.5645 7.76541 15.7911 8 15 8C13.9402 7.99671 12.9247 7.57422 12.1752 6.82479C11.4258 6.07536 11.0033 5.05985 11 4ZM22 15C18.4375 15 16.7875 13.2375 15.05 11.3625C14.6125 10.8875 14.15 10.4 13.675 9.9625C9.02501 5.6625 1.61251 12.975 1.28751 13.2875C1.17827 13.3772 1.089 13.4887 1.02546 13.6149C0.961919 13.7412 0.92551 13.8793 0.918577 14.0205C0.911645 14.1617 0.934341 14.3027 0.985206 14.4346C1.03607 14.5664 1.11398 14.6862 1.21391 14.7861C1.31385 14.886 1.4336 14.9639 1.56546 15.0148C1.69732 15.0657 1.83837 15.0884 1.97953 15.0814C2.12069 15.0745 2.25883 15.0381 2.38507 14.9746C2.51131 14.911 2.62285 14.8217 2.71251 14.7125C3.86041 13.5941 5.14074 12.6202 6.52501 11.8125C8.31251 10.7875 9.81251 10.425 10.9875 10.7125L8.77501 15.8L4.08751 26.6C4.03378 26.7197 4.00442 26.8488 4.00115 26.98C3.99788 27.1111 4.02077 27.2416 4.06848 27.3637C4.11619 27.4859 4.18777 27.5974 4.27903 27.6916C4.37029 27.7858 4.47941 27.8609 4.60001 27.9125C4.72471 27.9724 4.86168 28.0024 5.00001 28C5.19426 28.0008 5.38445 27.9443 5.54675 27.8376C5.70906 27.7309 5.83629 27.5787 5.91251 27.4L10.1125 17.7375L14 20.5125V27C14 27.2652 14.1054 27.5196 14.2929 27.7071C14.4804 27.8946 14.7348 28 15 28C15.2652 28 15.5196 27.8946 15.7071 27.7071C15.8947 27.5196 16 27.2652 16 27V20C16.0012 19.8401 15.9631 19.6824 15.889 19.5407C15.8149 19.399 15.7071 19.2777 15.575 19.1875L10.9375 15.8625L12.7 11.8L13.5875 12.725C15.3625 14.625 17.5625 17 22 17C22.2652 17 22.5196 16.8946 22.7071 16.7071C22.8947 16.5196 23 16.2652 23 16C23 15.7348 22.8947 15.4804 22.7071 15.2929C22.5196 15.1054 22.2652 15 22 15Z" fill="#F1AE00"/>
</svg>
