<?xml version="1.0" encoding="UTF-8" standalone="no"?>
<svg
   width="0.18666668in"
   height="0.18296668in"
   viewBox="0 0 56.000002 54.890002"
   version="1.1"
   id="tooth"
   inkscape:version="1.1.1 (3bf5ae0d25, 2021-09-20)"
>
  <defs
     id="defs7" />

  <path
     id="top"
     fill="none"
     stroke="#000000"
     strokeWidth="1"
     d="m 10.51,45.44 c 0,0 -10.01000003,9 -10.01000003,9 0,0 55.00000003,0 55.00000003,0 0,0 -10,-9 -10,-9 0,0 -34.99,0 -34.99,0 z"
     style="strokeWidth:0.9;strokeLinecap:round;strokeLinejoin:round;strokeMiterlimit:4;strokeDasharray:none" />
  <path
     id="Selection #1-6"
     fill="none"
     stroke="#000000"
     strokeWidth="1"
     d="m 10.52,9.45 c 0,0 -10.01000003,-9.00000001 -10.01000003,-9.00000001 0,0 55.00000003,0 55.00000003,0 0,0 -10,9.00000001 -10,9.00000001 0,0 -34.99,0 -34.99,0 z"
     style="strokeWidth:0.9;strokeLinecap:round;strokeLinejoin:round;strokeMiterlimit:4;strokeDasharray:none" />
  <path
     id="Selection"
     fill="none"
     stroke="#000000"
     strokeWidth="1"
     d="m 55.48,0.45999899 c 0,0 0.02,53.98000101 0.02,53.98000101 0,0 -10.01,-9 -10.01,-9 0,0 0.02,-35.99 0.02,-35.99 0,0 9.97,-8.99000101 9.97,-8.99000101 z"
     style="strokeLinecap:round;strokeLinejoin:bevel;paint-order:normal" />
  <path
     id="Selection-3"
     fill="none"
     stroke="#000000"
     strokeWidth="1"
     d="m 0.51999997,0.45999899 c 0,0 -0.02,53.98000101 -0.02,53.98000101 0,0 10.01000003,-9 10.01000003,-9 0,0 -0.02,-35.99 -0.02,-35.99 0,0 -9.97000003,-8.99000101 -9.97000003,-8.99000101 z"
     style="strokeLinecap:round;strokeLinejoin:bevel" />
  <path
     id="Selection-5"
     fill="none"
     stroke="#000000"
     strokeWidth="1"
     d="M 45.51,9.449999 45.49,45.44 H 10.51 L 10.49,9.449999 Z"
     style="strokeLinecap:round;strokeLinejoin:round"
     sodipodi:nodetypes="ccccc" />
</svg>
