<svg id="Layer_2" height="512" viewBox="0 0 512 512" width="512" xmlns="http://www.w3.org/2000/svg"><g><g><path d="m106 42h300v460h-300z" fill="#edeff1"/></g><g><path d="m106 10h300v32h-300z" fill="#6e83b7"/></g><g><path d="m406 104h96v398h-96z" fill="#d3d3d3"/></g><g><path d="m406 72h96v32h-96z" fill="#466089"/></g><g><path d="m304 106h-32v-32h-32v32h-32v32h32v32h32v-32h32z" fill="#6e83b7"/></g><g><path d="m138 202h32v64h-32z" fill="#80d6fb"/></g><g><path d="m189 202h32v64h-32z" fill="#80d6fb"/></g><g><path d="m240 202h32v64h-32z" fill="#80d6fb"/></g><g><path d="m291 202h32v64h-32z" fill="#80d6fb"/></g><g><path d="m438 251h32v64h-32z" fill="#46bee8"/></g><g><path d="m438 347h32v64h-32z" fill="#46bee8"/></g><g><path d="m438 153h32v64h-32z" fill="#46bee8"/></g><g><path d="m10 104h96v398h-96z" fill="#d3d3d3" transform="matrix(-1 0 0 -1 116 606)"/></g><g><path d="m10 72h96v32h-96z" fill="#466089" transform="matrix(-1 0 0 -1 116 176)"/></g><g><path d="m42 251h32v64h-32z" fill="#46bee8" transform="matrix(-1 0 0 -1 116 566)"/></g><g><path d="m42 347h32v64h-32z" fill="#46bee8" transform="matrix(-1 0 0 -1 116 758)"/></g><g><path d="m42 153h32v64h-32z" fill="#46bee8" transform="matrix(-1 0 0 -1 116 370)"/></g><g><path d="m138 298h32v64h-32z" fill="#80d6fb"/></g><g><path d="m189 298h32v64h-32z" fill="#80d6fb"/></g><g><path d="m240 298h32v64h-32z" fill="#80d6fb"/></g><g><path d="m291 298h32v64h-32z" fill="#80d6fb"/></g><g><path d="m219 422h74v80h-74z" fill="#80d6fb"/></g><g><path d="m342 202h32v64h-32z" fill="#80d6fb"/></g><g><path d="m342 298h32v64h-32z" fill="#80d6fb"/></g><g><path d="m250 422h12v80h-12z" fill="#46bee8"/></g></g></svg>