<svg id="Icon" enableBackground="new 0 0 64 64" viewBox="0 0 64 64" xmlns="http://www.w3.org/2000/svg"><g><path d="m49.832 21.575c-.798-8.803-8.069-15.774-16.913-16.217-9.968-.708-19.043 7.903-18.826 17.885 0 2.978.747 5.929 2.188 8.582l13.16 21.226c1.082 1.873 4.035 1.878 5.117 0 0 0 13.16-21.226 13.16-21.226 1.711-3.115 2.437-6.666 2.114-10.25zm-17.832 8.641c-4.619 0-8.377-3.758-8.377-8.376.46-11.113 16.295-11.109 16.753 0 .001 4.619-3.757 8.376-8.376 8.376z" fill="#2754a5"/><path d="m41.333 44.43c-.41.34-.469.947-.129 1.357 4.23 5.539-1.874 10.976-9.204 10.947-7.33.029-13.435-5.408-9.204-10.947.34-.41.282-1.017-.129-1.357-1.813-1.284-3.361 3.824-3.188 4.972 0 5.107 5.617 9.26 12.521 9.26s12.521-4.154 12.521-9.26c.173-1.153-1.369-6.245-3.188-4.972z" fill="#80a9da"/></g></svg>