<svg id="Layer_1" enableBackground="new 0 0 512 512" height="512" viewBox="0 0 512 512" width="512" xmlns="http://www.w3.org/2000/svg"><g><path d="m256 17.716c-135.311 0-245.002 109.691-245.002 245.002 0 106.393 67.824 196.933 162.588 230.779h164.828c94.764-33.845 162.588-124.385 162.588-230.779 0-135.311-109.691-245.002-245.002-245.002z" fill="#fc90ce"/><path d="m476.526 4.28h-383.431l.116.089c-1.574 1.6-3.897 4.606-4.203 8.644-.278 3.681 1.163 7.339 4.29 10.895-2.812 2.297-8.577 8.392-8.577 19.739v69.032l.168.323c.229.445 5.662 10.543 19.811 9.591l23.931 157.633c-1.669 1.964-7.124 8.946-10.107 19.506-3.157 11.177-3.968 28.554 9.816 48.254-.222.286-.49.638-.792 1.048h384.452v-309.279c0-19.561-15.914-35.475-35.474-35.475z" fill="#6289cc"/><path d="m95.554 4.28h-60.08c-19.56 0-35.474 15.914-35.474 35.475v309.28h129.415c.505-.646.803-.992.803-.992-27.337-37.939 0-67.351 0-67.351l-24.247-159.719c-14.417 1.658-19.75-8.658-19.75-8.658s0-54.667 0-68.667 9.333-19.528 9.333-19.528c-11.43-11.431 0-19.84 0-19.84z" fill="#3c58a0"/><path d="m476.526 24.12h-383.477c-2.886 2.439-8.328 8.497-8.328 19.528v69.032l.168.323c.229.445 5.662 10.543 19.811 9.591l23.931 157.633c-1.669 1.964-7.124 8.946-10.107 19.506-3.157 11.177-3.968 28.554 9.816 48.254-.014.017-.029.038-.043.056h363.863v-308.288c0-8.621-7.013-15.635-15.634-15.635z" fill="#3c58a0"/><path d="m130.218 280.691-24.247-159.719c-.144.016-.287.032-.43.046-10.361 1.034-19.32-7.188-19.32-17.601v-59.77c0-14 9.333-19.528 9.333-19.528h-60.08c-8.634 0-15.633 6.999-15.633 15.634v308.289h110.378c-27.338-37.938-.001-67.351-.001-67.351z" fill="#2a428c"/><path d="m162.79 168.513c-2.774-5.702-4.215-11.961-4.215-18.302v-36.208c0-6.471-2.912-10.03-6.115-11.988-3.58-2.188-7.984-2.558-11.971-1.251-15.48 5.075-27.261 12.899-36.23 21.843-.228 2.374-.429 6.674.379 11.324 1.628 9.355 6.578 15.522 14.316 17.837 2.48.741 4.224 2.273 5.33 4.684 5.288 11.522-6.154 37.428-6.271 37.688l-.132.295.285 60.939c-.537 1.733-3.27 11.624 1.671 19.376 1.871 2.938 4.595 5.167 8.125 6.685 4.72-1.503 8.901-3.176 12.589-4.941 16.173-7.741 26.453-24.09 26.453-42.021v-47.659c.001-6.34-1.44-12.599-4.214-18.301z" fill="#ff7186"/><path d="m130.218 280.691c-17.076-5.796-10.549-25.085-10.549-25.085l-.284-60.854s17.503-39.188 0-44.421c-17.279-5.166-13.513-28.754-13.414-29.359-21.009 19.835-27.461 45.863-29.426 59.446-.765 5.289-2.954 10.24-6.176 14.504-18.72 24.775-19.659 95.854-.885 106.354 14.006 7.834 33.403-4.533 43.226-12.128 4.336-3.353 9.267-5.847 14.502-7.473 1.03-.319 2.027-.648 3.006-.984z" fill="#ff4155"/><path d="m292.565 194.923c-3.222-4.264-5.41-9.215-6.175-14.504-2.148-14.847-9.651-44.564-35.677-64.807-4.161 3.425-9.929 9.402-11.67 17.269-1.373 6.204.018 12.452 4.133 18.577l11.324 89.95v12.166c-1.931 1.717-8.032 7.844-9.202 17.633-.639 5.34.306 10.828 2.795 16.406.723.492 1.438.999 2.132 1.536 9.823 7.595 29.22 19.962 43.226 12.128 18.773-10.501 17.835-81.579-.886-106.354z" fill="#ff7186"/><path d="m256 254.269v-12.954l-11.381-90.401c-11.094-16.145.572-28.864 7.307-34.34-7.923-6.394-17.604-11.915-29.48-15.809-3.987-1.307-8.391-.937-11.971 1.251-3.203 1.957-6.115 5.517-6.115 11.988v36.208c0 6.341-1.441 12.599-4.215 18.302-2.774 5.702-4.215 11.961-4.215 18.302v47.659c0 17.93 10.28 34.279 26.453 42.021 3.883 1.859 8.307 3.619 13.34 5.182 5.235 1.626 10.166 4.12 14.502 7.473.147.113.302.231.453.346-11.61-21.969 5.322-35.228 5.322-35.228z" fill="#ff4155"/><g fill="#e80054"><path d="m258.21 177.006c-3.524-1.752-5.805-5.414-5.325-9.32 1.177-9.589-6.152-19.11-16.915-19.11-15.113 0-21.676 17.441-13.428 27.649 2.459 3.044 2.654 7.355.566 10.664-2.868 4.546-4.425 10-4.139 15.836.672 13.686 11.743 24.916 25.42 25.763 15.799.979 28.917-11.544 28.917-27.131 0-10.67-6.149-19.902-15.096-24.351z"/><ellipse cx="247.955" cy="238.965" rx="17.29" ry="17.29" transform="matrix(.707 -.707 .707 .707 -96.349 245.322)"/><path d="m104.725 177.006c3.524-1.752 5.805-5.414 5.326-9.32-1.177-9.589 6.152-19.11 16.915-19.11 15.113 0 21.676 17.441 13.429 27.649-2.459 3.044-2.654 7.355-.566 10.664 2.868 4.546 4.425 10 4.139 15.836-.672 13.686-11.744 24.916-25.42 25.763-15.798.979-28.917-11.544-28.917-27.131-.002-10.67 6.147-19.902 15.094-24.351z"/><ellipse cx="114.98" cy="238.965" rx="17.29" ry="17.29" transform="matrix(.973 -.23 .23 .973 -51.827 32.81)"/></g><path d="m217.868 172.109-23.74-19.237c-2.222-1.8-3.512-4.507-3.512-7.366v-60.865c0-1.914.594-3.799 1.774-5.306 2.028-2.591 1.619-6.361-1.02-8.447-2.379-1.881-5.822-1.591-8.01.51l-1.902 1.826-1.902-1.826c-2.188-2.101-5.631-2.391-8.01-.51-2.639 2.086-3.048 5.856-1.02 8.447 1.18 1.507 1.774 3.392 1.774 5.306v60.865c0 2.859-1.29 5.566-3.512 7.366l-23.604 19.128c-1.781 1.444-2.479 3.917-1.535 6.006 1.233 2.727 4.553 3.741 7.09 2.212l26.918-16.23c2.339-1.41 5.265-1.41 7.604 0l26.784 16.149c2.303 1.389 5.364.814 6.84-1.434 1.423-2.166.946-5.004-1.017-6.594z" fill="#f9a0b1"/><g><path d="m251.496 194.268c-1.147 0-2.311-.287-3.382-.893-3.309-1.871-4.473-6.071-2.602-9.378l52.057-92.025c1.221-2.159 3.51-3.494 5.99-3.494h52.057c3.801 0 6.882 3.081 6.882 6.882s-3.081 6.882-6.882 6.882h-48.043l-50.082 88.531c-1.263 2.238-3.595 3.495-5.995 3.495z" fill="#4b6bb2"/></g><g><path d="m448.542 190.765h-97.276c-3.801 0-6.882-3.081-6.882-6.882s3.081-6.882 6.882-6.882h97.276c3.801 0 6.882 3.081 6.882 6.882s-3.081 6.882-6.882 6.882z" fill="#73c3f9"/></g><g><path d="m448.542 217.983h-97.276c-3.801 0-6.882-3.081-6.882-6.882s3.081-6.882 6.882-6.882h97.276c3.801 0 6.882 3.081 6.882 6.882s-3.081 6.882-6.882 6.882z" fill="#73c3f9"/></g><g><path d="m448.542 136.329h-97.276c-3.801 0-6.882-3.081-6.882-6.882s3.081-6.882 6.882-6.882h97.276c3.801 0 6.882 3.081 6.882 6.882s-3.081 6.882-6.882 6.882z" fill="#73c3f9"/></g><g><path d="m448.542 163.546h-97.276c-3.801 0-6.882-3.081-6.882-6.882s3.081-6.882 6.882-6.882h97.276c3.801 0 6.882 3.081 6.882 6.882s-3.081 6.882-6.882 6.882z" fill="#73c3f9"/></g><g><path d="m399.904 245.202h-48.637c-3.801 0-6.882-3.081-6.882-6.882s3.081-6.882 6.882-6.882h48.637c3.801 0 6.882 3.081 6.882 6.882s-3.081 6.882-6.882 6.882z" fill="#73c3f9"/></g><path d="m194.854 490.26h122.292l-16.178-77.588h-89.936z" fill="#d3dcfb"/><path d="m313.79 474.165c-1.853 1.727-4.335 2.809-7.121 2.809h-54.646c-6.644 0-11.609-6.107-10.253-12.611l6.27-30.07c1.013-4.856 5.293-8.336 10.253-8.336h42.107c1.207 0 2.373.209 3.463.591l-2.893-13.877h-89.937l-16.178 77.588h122.292z" fill="#bec8f7"/><path d="m329.486 487.88h-82.09c-1.807 2.271-7.726 10.844-2.172 19.607 3.573.155 7.165.233 10.775.233 28.917 0 56.658-5.024 82.414-14.224-1.603-3.32-4.992-5.616-8.927-5.616z" fill="#deeeff"/><path d="m128.296 348.043c-4.66 6.017-27.475 38.594-.167 67.252h348.398c19.56 0 35.474-15.914 35.474-35.474v-31.778z" fill="#deeeff"/><path d="m0 348.043v31.778c0 19.56 15.914 35.474 35.474 35.474h94.744c-31.178-31.178 0-67.252 0-67.252z" fill="#bec8f7"/><path d="m182.514 487.88c-3.934 0-7.324 2.296-8.928 5.616 22.696 8.106 46.933 12.965 72.157 14.007-6.835-9.839 2.145-19.624 2.145-19.624h-65.374z" fill="#d3dcfb"/><path d="m304.49 226.456c-8.733 2.957-19.216 9.19-16.602 21.859 3.96 19.189-20.46 37.265-1.306 55.244 2.382-.335 4.691-1.064 6.869-2.282 13.197-7.381 16.653-44.697 11.039-74.821z" fill="#f9a0b1"/></g></svg>