<svg id="Capa_1" enableBackground="new 0 0 512 512" height="512" viewBox="0 0 512 512" width="512" xmlns="http://www.w3.org/2000/svg"><g><g><path clipRule="evenodd" d="m103.258 321.711c37.128-6.66 41.489 14.096 64.31 20.408 13.681 3.784 25.895 2.115 34.213 0 2.515-.657 15.329-11.862 15.329-16.206v-26.268c7.303-72.941-52.36-98.531-90.157-93.351v40.273c-2.287 29.297-5.088 52.935-24.781 71.714-2.715 2.601-1.915 3.973 1.086 3.43z" fill="#ce8b6b" fillRule="evenodd"/></g><g><path clipRule="evenodd" d="m321.156 344.374c8.317 2.115 14.103-4.97 23.278-2.255 18.15-15.206 27.182-27.068 64.31-20.408 3.001.543 3.83-.829 1.086-3.43-19.693-18.779-22.494-42.417-24.781-71.714v-40.273c-16.135-7.874-23.909 12.187-41.001 12.33-5.688 24.524-32.764 64.244-56.916 81.022l6.169 35.3c0 4.345 12.862 6.174 16.806 7.174z" fill="#ce8b6b" fillRule="evenodd"/></g><g><path clipRule="evenodd" d="m201.78 376.304c36.928 20.351 71.427 20.494 108.326.486l.057-.172 7.803-41.674c-2.458-.629-4.888-1.258-7.346-1.886-3.944-1-6.317-2.801-6.317-7.146v-36.357c-7.431 5.145-15.377 9.404-23.609 12.462-8.946 3.316-16.806 4.973-24.695 4.973s-15.749-1.658-24.695-4.973c-8.232-3.058-16.177-7.317-23.609-12.462v36.357c0 4.345-2.372 6.145-6.317 7.146-2.458.629-4.888 1.258-7.346 1.886z" fill="#ffdfcf" fillRule="evenodd"/></g><g><g><path clipRule="evenodd" d="m385.048 196.204c0-41.331-10.175-87.035-37.843-118.962h-182.41c-25.209 29.097-37.643 71.657-37.843 118.933.143-8.46 257.953-8.46 258.096.029z" fill="#e29d7b" fillRule="evenodd"/></g></g><g><path clipRule="evenodd" d="m256 95.392c21.722.086 43.045 4.573 72.57 13.748 2.601.8 2.973.229 3.716-1.286l31.069-63.74c1.601-3.23 1.686-3.63-1.458-5.459-35.556-20.579-70.769-31.041-105.897-31.155-35.127.114-70.34 10.576-105.896 31.155-3.144 1.829-3.058 2.229-1.458 5.459l31.069 63.74c.743 1.515 1.115 2.087 3.716 1.286 29.525-9.175 50.847-13.662 72.569-13.748z" fill="#c3ddff" fillRule="evenodd"/></g><g><path clipRule="evenodd" d="m256 317.081c7.889 0 15.749-1.658 24.695-4.973 8.232-3.058 16.177-7.317 23.609-12.462 24.152-16.778 42.787-42.931 48.475-67.455 1.172-5.059 1.801-10.061 1.801-14.892v-36.672-7.26c0-2.601-2.144-4.745-4.745-4.745h-6.86c-21.094 0-34.842-13.091-42.13-22.781l-8.489-13.148c-1.458-1.486-2.001-1.486-3.458 0l-9.546 14.777c-17.778 27.525-73.713 21.151-109.269 21.151h-7.917c-2.601 0-4.745 2.144-4.745 4.745v7.26 36.672c0 4.83.629 9.832 1.801 14.892 5.688 24.524 24.323 50.677 48.475 67.455 7.431 5.145 15.377 9.404 23.609 12.462 8.946 3.316 16.806 4.974 24.694 4.974z" fill="#ffeee6" fillRule="evenodd"/></g><g><path clipRule="evenodd" d="m126.952 206.294c0 16.692 15.177 25.753 32.269 25.896-1.172-5.059-1.801-10.061-1.801-14.892v-36.672h-14.863c-8.489 0-15.463 7.089-15.606 15.578v.257.8 9.033z" fill="#ffcebf" fillRule="evenodd"/></g><g><path clipRule="evenodd" d="m352.779 232.19c17.092-.143 32.269-9.204 32.269-25.896v-9.032c0-.257 0-.543 0-.8 0-.086 0-.172 0-.257-.143-8.489-7.117-15.578-15.606-15.578h-14.862v36.672c0 4.829-.629 9.831-1.801 14.891z" fill="#ffcebf" fillRule="evenodd"/></g><g><path clipRule="evenodd" d="m325.14 165.22c5.231 2.087 11.176 3.401 17.835 3.401h6.86c2.601 0 4.745 2.144 4.745 4.745v7.26h14.863c8.489 0 5.431-71.457-22.237-103.384l-14.92 30.612c-.743 1.515-1.115 2.087-3.716 1.286-5.573-1.715-10.833-3.287-15.863-4.688-3.316-.915-6.545-1.772-9.661-2.544 10.976 18.151 18.322 39.703 22.094 63.312z" fill="#ce8b6b" fillRule="evenodd"/></g><g><path clipRule="evenodd" d="m312.707 104.453c5.03 1.401 10.29 2.973 15.863 4.688 2.601.8 2.973.229 3.716-1.286l14.92-30.612 16.149-33.127c1.601-3.23 1.686-3.63-1.458-5.459-12.09-7.003-24.152-12.805-36.156-17.464l-32.441 78.487c3.173.657 6.402 1.401 9.746 2.229 2.401.6 4.83 1.229 7.317 1.915.772.2 1.544.429 2.344.629z" fill="#a4ccff" fillRule="evenodd"/></g><g><path clipRule="evenodd" d="m311.45 361.355 6.517-26.411c-2.458-.629-4.888-1.258-7.346-1.886-3.944-1-6.317-2.801-6.317-7.146v-26.268c-7.431 5.145-15.377 9.404-23.609 12.462-5.145 1.915-9.947 3.287-14.605 4.087-3.43.6-6.745.886-10.089.886-7.889 0-15.749-1.658-24.695-4.973-8.232-3.058-16.177-7.317-23.609-12.462v24.038c11.061 14.72 39.3 21.294 62.309 16.921 8.803-1.658 3.401-3.373 12.976 6.917 7.374 7.947 19.693 11.12 28.468 13.835z" fill="#ffcebf" fillRule="evenodd"/></g><g><path clipRule="evenodd" d="m201.78 366.243 3.43 69.342 30.754 68.913h40.072l34.07-137.798c-36.899 20.037-71.398 19.865-108.326-.457z" fill="#c3ddff" fillRule="evenodd"/></g><g><path clipRule="evenodd" d="m280.695 312.107c8.232-3.058 16.177-7.317 23.609-12.462 24.152-16.778 42.787-42.931 48.475-67.455 1.172-5.059 1.801-10.061 1.801-14.892v-36.672-7.26c0-2.601-2.144-4.745-4.745-4.745h-6.86c-6.66 0-12.605-1.315-17.835-3.401v35.1c0 35.386-33.241 79.775-73.885 94.838-8.946 3.316-16.806 4.973-24.695 4.973s-15.749-1.658-24.695-4.973c-.143-.057-.257-.114-.4-.143 2.029 1.601 4.116 3.144 6.231 4.63 7.431 5.145 15.377 9.404 23.609 12.462 8.946 3.316 16.806 4.973 24.695 4.973 3.344 0 6.66-.286 10.089-.886 4.66-.8 9.462-2.172 14.606-4.087z" fill="#ffdfcf" fillRule="evenodd"/></g><g><path clipRule="evenodd" d="m246.283 504.498h29.754l33.955-61.968.114-75.83c-14.748 8.003-29.154 12.805-43.445 14.349-.971 45.732-8.374 88.064-20.378 123.449z" fill="#a4ccff" fillRule="evenodd"/></g><g><path clipRule="evenodd" d="m63.3 504.498h172.664l-34.184-138.255-7.746-31.298c-8.317 2.115-17.292 4.459-26.467 7.174-43.245 12.719-91.291 33.385-99.923 77.574l-14.548 74.43c-1.572 8.146 1.601 10.375 10.204 10.375z" fill="#edf4ff" fillRule="evenodd"/></g><g><path clipRule="evenodd" d="m276.036 504.498h172.664c8.603 0 11.776-2.229 10.204-10.376l-14.548-74.43c-8.632-44.189-56.678-64.854-99.923-77.574-9.175-2.715-18.15-5.059-26.467-7.174l-7.803 31.584-.057.172z" fill="#edf4ff" fillRule="evenodd"/></g><g><path clipRule="evenodd" d="m311.45 361.355c41.816 12.834 86.404 33.585 94.692 76.002l13.091 67.141h29.468c8.603 0 11.776-2.229 10.204-10.376l-14.548-74.43c-8.632-44.189-56.678-64.854-99.923-77.574-9.175-2.715-18.15-5.059-26.467-7.174z" fill="#dbeaff" fillRule="evenodd"/></g><path d="m272.064 44.618h-8.564v-8.564c0-4.142-3.357-7.5-7.5-7.5-4.142 0-7.5 3.358-7.5 7.5v8.564h-8.563c-4.142 0-7.5 3.358-7.5 7.5s3.358 7.5 7.5 7.5h8.563v8.563c0 4.142 3.358 7.5 7.5 7.5 4.143 0 7.5-3.358 7.5-7.5v-8.563h8.563c4.143 0 7.5-3.358 7.5-7.5s-3.357-7.5-7.499-7.5z"/><g><path d="m209.469 217.624c4.142 0 7.5-3.358 7.5-7.5v-5.688c0-4.142-3.358-7.5-7.5-7.5s-7.5 3.358-7.5 7.5v5.688c0 4.142 3.358 7.5 7.5 7.5z"/><path d="m302.532 217.624c4.143 0 7.5-3.358 7.5-7.5v-5.688c0-4.142-3.357-7.5-7.5-7.5s-7.5 3.358-7.5 7.5v5.688c0 4.142 3.358 7.5 7.5 7.5z"/><path d="m255.32 280.085c.225.004.449.007.674.007 9.401 0 18.416-4.004 25.449-11.321 2.87-2.986 2.776-7.734-.21-10.604-2.985-2.87-7.733-2.777-10.604.21-4.267 4.438-9.589 6.83-15.004 6.711-5.15-.104-9.976-2.409-13.589-6.487-2.747-3.101-7.487-3.387-10.587-.641-3.101 2.747-3.388 7.487-.641 10.587 6.422 7.249 15.127 11.347 24.512 11.538z"/><path d="m329.428 454.524c-4.143 0-7.5 3.358-7.5 7.5s3.357 7.5 7.5 7.5h62.48c4.143 0 7.5-3.358 7.5-7.5s-3.357-7.5-7.5-7.5z"/><path d="m466.264 492.682-7.889-40.302c-.795-4.065-4.732-6.713-8.801-5.92-4.065.796-6.716 4.736-5.92 8.801l7.885 40.283c.102.525.164.952.201 1.295-.649.085-1.621.159-3.04.159h-163.083l31.827-128.67 5.985-24.225c45.179 11.845 104.504 30.589 113.565 77.027.699 3.581 3.837 6.065 7.353 6.065.476 0 .959-.046 1.444-.14 4.065-.793 6.718-4.732 5.925-8.798-8.513-43.629-50.639-65.628-92.047-79.261 11.908-9.825 21.469-14.617 47.736-9.905 7.168 1.298 10-3.089 10.696-4.464.91-1.795 2.427-6.537-3.098-11.773-17.293-16.49-20.146-37.084-22.456-66.579v-39.98s-.008-10.094-.01-10.225c-.209-48.367-13.108-90.657-36.473-119.883l14.008-28.741c2.276-4.593 3.832-10.479-4.421-15.281-36.668-21.226-73.553-32.048-109.675-32.165-36.073.117-72.958 10.939-109.644 32.173-8.237 4.793-6.682 10.68-4.427 15.228l14.028 28.778c-7.772 9.714-14.42 20.834-19.79 33.132-1.657 3.796.076 8.217 3.872 9.874.977.427 1.996.629 2.998.629 2.891 0 5.646-1.682 6.877-4.5 3.803-8.71 8.312-16.725 13.431-23.979l9.662 19.821c2.521 5.142 6.897 6.924 12.674 5.146 30.789-9.568 50.515-13.329 70.344-13.411 19.829.082 39.556 3.843 70.364 13.417 1.444.444 2.802.665 4.064.665 3.771 0 6.704-1.97 8.6-5.834l9.657-19.812c15.207 21.608 24.782 50.205 27.817 82.916-2.227-.723-4.598-1.118-7.06-1.118h-7.374c-.129-6.641-5.562-12.005-12.233-12.005h-6.859c-17.43 0-29.165-10.597-35.978-19.58l-8.34-12.916c-.274-.425-.592-.822-.946-1.184-.902-.92-3.3-3.363-7.085-3.363-3.786 0-6.182 2.444-7.083 3.365-.354.36-.67.756-.944 1.18l-9.547 14.778c-12.81 19.832-53.096 18.826-85.467 18.021-6.189-.155-12.035-.3-17.502-.3h-7.917c-6.671 0-12.103 5.364-12.232 12.005h-7.374c-2.46 0-4.83.394-7.055 1.116.833-9.073 2.149-17.85 3.978-26.231.883-4.047-1.682-8.043-5.729-8.927-4.045-.882-8.043 1.681-8.927 5.729-3.464 15.876-5.255 32.991-5.355 50.882-.008.255-.019 10.598-.019 10.598v39.981c-2.31 29.495-5.164 50.089-22.469 66.591-5.501 5.27-3.975 9.997-3.064 11.785.698 1.368 3.529 5.733 10.662 4.443 26.276-4.713 35.839.077 47.748 9.902-41.408 13.632-83.533 35.631-92.047 79.258l-14.552 74.448c-.426 2.21-1.724 8.936 2.458 14.001 3.874 4.693 10.11 5.295 15.111 5.295h172.635c.008 0 .015.002.023.002.011 0 .022-.002.032-.002h40.019c.011 0 .022.002.032.002.008 0 .015-.002.023-.002h172.635c5 0 11.236-.602 15.11-5.295 4.182-5.065 2.884-11.791 2.453-14.02zm-138.937-391.771c-30.398-9.266-50.618-12.937-71.298-13.019-.01 0-.02 0-.029 0-.01 0-.02 0-.029 0-20.683.082-40.907 3.754-71.297 13.019l-27.972-57.387c33.426-18.825 66.823-28.419 99.274-28.524 32.502.105 65.906 9.702 99.323 28.524zm-23.678 260.715c-32.424 16.677-62.897 16.541-95.397-.428l-5.153-20.838.124-.032c10.417-2.643 11.973-10.166 11.973-14.415v-12.907c4.401 2.366 8.912 4.433 13.502 6.134 10.016 3.711 18.691 5.44 27.301 5.44s17.286-1.729 27.302-5.44c4.591-1.701 9.101-3.768 13.502-6.134v12.907c0 4.25 1.556 11.773 11.954 14.411l.145.037zm58.431-144.328v-29.172h7.362c4.349 0 8.024 3.739 8.099 8.196.001.314.007 9.971.007 9.971 0 9.44-7.04 15.02-15.784 17.256.195-2.098.316-4.186.316-6.251zm-3.435 22.045c7.255-.801 13.665-2.986 18.904-6.283v13.507c0 .195.008.389.022.583 2.057 26.349 4.723 47.43 17.334 65.312-25.785-1.464-36.88 8.087-50.386 19.724-.612.527-1.239 1.066-1.867 1.605-9.467-2.702-30.673-8.134-30.849-8.192v-22.147c22.168-16.434 39.732-40.322 46.842-64.109zm-193.724-63.222h5.162c5.28 0 11.035.144 17.128.295 36.119.899 81.067 2.021 98.441-24.877l4.975-7.7 3.919 6.069c.097.15.199.297.307.44 7.239 9.625 23.118 25.772 48.124 25.772h4.104v41.177c0 4.088-.495 8.297-1.424 12.559-.123.375-.214.763-.277 1.161-7.074 29.962-35.483 62.268-67.29 74.056-8.295 3.074-15.313 4.506-22.089 4.506-6.775 0-13.794-1.432-22.088-4.506-31.809-11.789-60.219-44.097-67.291-74.06-.062-.396-.153-.782-.275-1.155-.93-4.263-1.425-8.472-1.425-12.561v-41.176zm-30.456 20.088c.136-4.406 3.782-8.083 8.093-8.083h7.362v29.172c0 2.065.121 4.153.315 6.252-8.743-2.236-15.784-7.816-15.784-17.256.002 0 .013-9.733.014-10.085zm-17.369 116.257c12.609-17.875 15.277-38.961 17.333-65.316.015-.194.023-.389.023-.583v-13.507c5.239 3.297 11.649 5.481 18.903 6.283 7.11 23.787 24.674 47.676 46.841 64.11v22.147c-.18.058-21.382 5.49-30.848 8.192-.629-.54-1.256-1.078-1.868-1.606-13.499-11.631-24.583-21.178-50.384-19.72zm-53.796 184.532c-1.42 0-2.392-.073-3.041-.159.037-.34.099-.762.198-1.278l14.549-74.432c9.061-46.438 68.388-65.182 113.567-77.027l37.811 152.896zm206.866 0h-28.33l-28.944-117.042c14.532 6.079 28.723 9.086 43.029 9.149.154.001.305.001.459.001 14.188 0 28.259-2.9 42.654-8.818z"/></g></g></svg>