<svg id="Layer_1" height="512" viewBox="0 0 512 512" width="512" xmlns="http://www.w3.org/2000/svg" data-name="Layer 1"><path d="m202.418 131.771a5.4 5.4 0 0 0 -1.59-3.878l-94.3-94.3a5.518 5.518 0 0 0 -7.751 0l-52.5 52.489c-11.667 11.672-16.319 26.43-13.45 42.692 11.751 66.511 60.9 148.351 131.48 218.929s152.432 119.725 218.939 131.477c16.253 2.868 31.01-1.779 42.682-13.45l52.49-52.5a5.518 5.518 0 0 0 0-7.751l-94.3-94.3a5.518 5.518 0 0 0 -7.751 0l-50.141 50.14a28.81 28.81 0 0 1 -37.167 3.109c-50.229-35.717-105.759-91.246-141.481-141.476a28.809 28.809 0 0 1 3.122-37.172l50.131-50.13a5.439 5.439 0 0 0 1.59-3.879zm21.041 26.5-48.272 48.268c32.883 45.6 84.68 97.4 130.282 130.282l48.267-48.273a37.536 37.536 0 0 1 53.014 0l94.3 94.3a37.539 37.539 0 0 1 0 53.009l-52.49 52.49c-15.512 15.508-35.029 23.66-56.061 23.66a85.274 85.274 0 0 1 -14.819-1.321c-37.9-6.69-78.669-23.2-121.172-49.07-39.318-23.919-79.018-55.49-114.821-91.289s-67.38-75.513-91.3-114.831c-25.867-42.496-42.37-83.265-49.07-121.168-4.7-26.6 3.232-51.768 22.339-70.875l52.49-52.495a37.536 37.536 0 0 1 53.014 0l94.3 94.313a37.517 37.517 0 0 1 0 53zm97.559 10.091 128.829-128.833-98.017-4.779a16 16 0 0 1 1.557-31.958l134.089 6.539a16 16 0 0 1 15.2 15.2l6.544 134.089a15.991 15.991 0 0 1 -15.2 16.763c-.26 0-.533.018-.793.018a16 16 0 0 1 -15.969-15.219l-4.78-98.022-128.828 128.829a16 16 0 1 1 -22.632-22.627z" fill="#f44336" fillRule="evenodd"/></svg>