<svg id="Layer_1" enableBackground="new 0 0 512 512" viewBox="0 0 512 512" xmlns="http://www.w3.org/2000/svg"><g clipRule="evenodd" fillRule="evenodd"><path d="m188.92 51.89c0-8.55 3.84-16.37 10.16-22.03 6.56-5.87 15.18-8.92 23.95-8.92s17.39 3.05 23.95 8.92c6.32 5.66 10.16 13.49 10.16 22.03 0 .44.35.8.79.8h22.21c12.58 0 24.59 9.14 24.59 22.3v11.54c0 13.17-12 22.3-24.59 22.3h-114.22c-12.58 0-24.59-9.14-24.59-22.3v-11.54c0-13.17 12.01-22.3 24.59-22.3h22.21c.44 0 .79-.36.79-.8z" fill="#d1d1d6"/><path d="m306.31 86.53v-4.98h35.16c19.45 0 35.27 15.82 35.27 35.27v241.38l-21.63-37.47c-1.82-3.15-4.6-5.42-8.12-6.36l-2.96-.8v-186.15c0-.44-.35-.79-.79-.79h-240.42c-.44 0-.79.35-.79.79v335.99c0 .44.36.79.79.79h145.72l-4.96 8.58c-2.41 4.17-2.54 8.86-.31 13.13l3.05 5.85h-141.74c-19.45 0-35.26-15.81-35.26-35.26v-339.69c0-19.45 15.82-35.27 35.26-35.27h35.16v4.98c0 14.02 12.74 23.89 26.18 23.89h114.22c13.44.01 26.17-9.87 26.17-23.88z" fill="#87d4ed"/><path d="m332.74 321.52c2.23-3.86 6.05-6.06 10.5-6.06s8.28 2.2 10.5 6.06l87.79 152.05c2.22 3.85 2.22 8.27 0 12.12-2.23 3.86-6.05 6.06-10.51 6.06h-175.58c-4.45 0-8.27-2.21-10.49-6.06s-2.22-8.26 0-12.12z" fill="#ffd064"/><g fill="#f1f1f2"><path d="m343.24 456.04c5 0 9.07 4.06 9.07 9.07 0 5-4.07 9.06-9.07 9.06s-9.06-4.06-9.06-9.06c-.01-5.01 4.05-9.07 9.06-9.07z"/><path d="m332.59 465.1c0 5.87 4.78 10.65 10.65 10.65s10.65-4.78 10.65-10.65-4.78-10.66-10.65-10.66c-5.87.01-10.65 4.8-10.65 10.66z"/><path d="m333.04 376.89c-.14-2.56.85-5.02 2.61-6.87 1.97-2.08 4.73-3.27 7.59-3.27 2.87 0 5.62 1.2 7.59 3.27 1.76 1.85 2.75 4.31 2.61 6.87l-2.77 50.52c-.23 4.13-3.51 6.58-7.43 6.58s-7.2-2.45-7.43-6.58z"/><path d="m334.23 427.5c.27 4.94 4.18 8.09 9.01 8.09s8.74-3.15 9.01-8.09l2.76-50.52c.17-3.02-.96-5.86-3.03-8.05-2.26-2.39-5.46-3.77-8.75-3.77s-6.49 1.38-8.75 3.77c-2.07 2.19-3.2 5.03-3.03 8.05z"/><path d="m342.44 128.21v185.37l-2.96.8c-3.52.95-6.3 3.22-8.12 6.37l-81.91 141.87h-145.84v-334.4h238.83z"/><path d="m180.83 175.99v15.55l-20.57 20.58-12.82-12.83c-.31-.31-.81-.31-1.12 0s-.31.81 0 1.12l13.38 13.38c.15.15.35.24.56.24s.41-.09.56-.24l20.01-20v38.46h-56.26v-56.26z"/></g><path d="m182.41 192.19 12.01-12c.31-.31.31-.81 0-1.12s-.8-.31-1.12 0l-10.89 10.89v-14.76c0-.44-.36-.79-.79-.79h-57.85c-.44 0-.79.35-.79.79v57.85c0 .44.35.79.79.79h57.85c.44 0 .79-.35.79-.79z" fill="#00da92"/><path d="m146.31 288.65 13.38 13.38c.15.15.35.24.56.24s.41-.09.56-.24l20.01-20.01v38.46h-56.26v-56.26h56.26v15.56l-20.57 20.57-12.82-12.81c-.31-.31-.81-.31-1.12 0-.31.3-.31.8 0 1.11z" fill="#f1f1f2"/><path d="m182.41 280.43 12.01-12.01c.32-.32.31-.81 0-1.13-.31-.31-.81-.31-1.12 0l-10.89 10.9v-14.77c0-.44-.36-.79-.79-.79h-57.85c-.44 0-.79.35-.79.79v57.85c0 .44.36.79.79.79h57.85c.44 0 .79-.35.79-.79z" fill="#00da92"/><path d="m164.72 368.56c-.31-.32-.81-.31-1.12 0l-10.9 10.9-10.91-10.9c-.31-.31-.8-.32-1.12 0-.31.31-.31.81 0 1.12l10.91 10.91-10.91 10.91c-.31.31-.31.81 0 1.12.15.15.35.23.57.23.21 0 .41-.08.56-.23l10.91-10.91 10.91 10.91c.15.15.35.23.56.23.22 0 .41-.08.56-.23.31-.31.3-.81 0-1.12l-10.9-10.91 10.9-10.91c.3-.31.29-.81-.02-1.12z" fill="#f1f1f2"/><path d="m124.57 352.46h56.26v56.26h-56.26z" fill="#f1f1f2"/><path d="m123.77 350.88c-.44 0-.79.35-.79.79v57.84c0 .44.35.8.79.8h57.85c.44 0 .79-.36.79-.8v-57.84c0-.44-.35-.79-.79-.79z" fill="#fe616c"/><path d="m348.3 465.1c0-2.8-2.27-5.07-5.07-5.07s-5.06 2.27-5.06 5.07c0 2.79 2.27 5.06 5.06 5.06s5.07-2.26 5.07-5.06zm9.59 0c0 8.08-6.57 14.65-14.65 14.65s-14.65-6.57-14.65-14.65 6.57-14.66 14.65-14.66c8.08.01 14.65 6.59 14.65 14.66zm-9.96-92.32c-1.22-1.29-2.93-2.03-4.69-2.03s-3.47.74-4.69 2.03c-1.05 1.1-1.58 2.49-1.51 3.9l2.77 50.52c.14 2.6 2.67 2.8 3.43 2.8.77 0 3.29-.2 3.43-2.8l2.77-50.52c.08-1.41-.46-2.81-1.51-3.9zm6.96-6.6c2.88 3.05 4.34 6.96 4.12 11.02l-2.76 50.52c-.38 6.88-5.85 11.87-13.01 11.87s-12.63-4.99-13-11.87l-2.77-50.52c-.22-4.06 1.24-7.97 4.12-11.02 3.02-3.19 7.27-5.02 11.65-5.02s8.63 1.83 11.65 5.02zm83.17 109.4c1.51 2.61 1.51 5.5 0 8.12-1.52 2.62-4.02 4.06-7.04 4.06h-175.56-.01c-3.02 0-5.52-1.44-7.03-4.06s-1.51-5.5 0-8.12l87.78-152.05c1.51-2.62 4.01-4.06 7.04-4.06s5.52 1.44 7.04 4.06zm-110.16-156.84c2.41-4.19 6.13-7.04 10.54-8.23v-178.3h-230.83v326.4h139.53zm-223.32 169.02c-17.24 0-31.26-14.02-31.26-31.26v-339.69c0-17.24 14.03-31.27 31.26-31.27h31.16v.98c0 15.38 13.54 27.89 30.18 27.89h114.22c16.64 0 30.17-12.51 30.17-27.89v-.98h31.16c17.24 0 31.27 14.03 31.27 31.27v226.46l-14.17-24.54c-2.42-4.19-6.13-7.04-10.55-8.23v-183.08c0-2.65-2.14-4.79-4.79-4.79h-240.41c-2.65 0-4.79 2.14-4.79 4.79v335.99c0 2.64 2.15 4.79 4.79 4.79h138.79l-1.49 2.58c-3.11 5.39-3.23 11.53-.39 16.98zm40.75-401.23c0 10.09 9.24 18.3 20.59 18.3h114.22c11.36 0 20.59-8.21 20.59-18.3v-11.54c0-10.09-9.23-18.3-20.59-18.3h-22.21c-2.65 0-4.79-2.15-4.79-4.8 0-14.86-13.51-26.95-30.11-26.95s-30.11 12.09-30.11 26.95c0 2.65-2.14 4.8-4.79 4.8h-22.21c-11.36 0-20.59 8.21-20.59 18.3zm301.03 401.95c-3.25 5.63-8.84 8.86-15.34 8.86h-175.56c-.01 0-.02 0-.03 0h-150.85c-22.53 0-40.85-18.33-40.85-40.85v-339.68c0-22.53 18.33-40.85 40.85-40.85h31.16v-.98c0-15.38 13.54-27.89 30.18-27.89h17.75c2.56-17.89 19.23-31.75 39.35-31.75s36.8 13.86 39.35 31.75h17.76c16.64 0 30.17 12.51 30.17 27.89v.98h31.16c22.53 0 40.85 18.32 40.85 40.85v243.06l64.03 110.9c3.27 5.64 3.27 12.1.02 17.71zm-193.33-90.12h-40.68c-2.65 0-4.79 2.15-4.79 4.8s2.15 4.79 4.79 4.79h40.68c2.65 0 4.79-2.14 4.79-4.79 0-2.64-2.14-4.8-4.79-4.8zm26.71-39.2h-67.39c-2.65 0-4.79 2.15-4.79 4.79 0 2.65 2.15 4.8 4.79 4.8h67.39c2.65 0 4.79-2.15 4.79-4.8.01-2.64-2.14-4.79-4.79-4.79zm-67.39-37.77h49.68c2.65 0 4.79-2.14 4.79-4.79s-2.15-4.79-4.79-4.79h-49.68c-2.65 0-4.79 2.14-4.79 4.79s2.14 4.79 4.79 4.79zm99.37-48.8c2.65 0 4.79 2.15 4.79 4.79 0 2.65-2.15 4.8-4.79 4.8h-99.37c-2.65 0-4.79-2.15-4.79-4.8 0-2.64 2.15-4.79 4.79-4.79zm-134.89 83.87v48.26h-48.26v-48.26zm9.58-4.79v57.84c0 2.65-2.15 4.8-4.79 4.8h-57.85c-2.65 0-4.79-2.15-4.79-4.8v-57.84c0-2.65 2.15-4.79 4.79-4.79h57.85c2.65 0 4.79 2.14 4.79 4.79zm-9.58-59.99v24.8h-48.26v-48.26h48.26v9.9l-16.57 16.57-10-9.99c-1.87-1.87-4.91-1.87-6.78 0s-1.87 4.91 0 6.78l13.38 13.38c.9.9 2.11 1.41 3.39 1.41 1.27 0 2.49-.51 3.39-1.41zm20.42-27.21c1.87 1.88 1.87 4.91 0 6.78l-10.84 10.84v39.19c0 2.64-2.15 4.79-4.79 4.79h-57.85c-2.65 0-4.79-2.15-4.79-4.79v-57.85c0-2.65 2.15-4.79 4.79-4.79h57.85c2.65 0 4.79 2.14 4.79 4.79v5.1l4.06-4.06c1.87-1.87 4.91-1.87 6.78 0zm15.1-29.65c-2.65 0-4.79-2.14-4.79-4.79s2.15-4.79 4.79-4.79h49.68c2.65 0 4.79 2.14 4.79 4.79s-2.15 4.79-4.79 4.79zm99.37-48.8c2.65 0 4.79 2.15 4.79 4.79 0 2.65-2.15 4.8-4.79 4.8h-99.37c-2.65 0-4.79-2.15-4.79-4.8 0-2.64 2.15-4.79 4.79-4.79zm-134.89 17.42v24.81h-48.26v-48.26h48.26v9.89l-16.57 16.58-10-10c-1.87-1.87-4.91-1.87-6.78 0s-1.87 4.91 0 6.78l13.38 13.38c.9.9 2.11 1.41 3.39 1.41 1.27 0 2.49-.51 3.39-1.41zm20.42-27.2c1.87 1.87 1.87 4.9 0 6.78l-10.84 10.83v39.19c0 2.65-2.15 4.79-4.79 4.79h-57.85c-2.65 0-4.79-2.14-4.79-4.79v-57.85c0-2.64 2.15-4.79 4.79-4.79h57.85c2.65 0 4.79 2.15 4.79 4.79v5.11l4.06-4.06c1.87-1.89 4.91-1.89 6.78 0zm-59.41 196.27c-1.87-1.87-1.87-4.9 0-6.77 1.87-1.88 4.91-1.88 6.78 0l8.08 8.07 8.08-8.07c1.87-1.88 4.91-1.88 6.78 0 1.87 1.87 1.87 4.9 0 6.77l-8.08 8.08 8.08 8.08c1.87 1.87 1.87 4.91 0 6.78-.94.93-2.16 1.4-3.39 1.4-1.22 0-2.45-.47-3.39-1.4l-8.08-8.08-8.08 8.08c-.94.93-2.16 1.4-3.38 1.4-1.23 0-2.45-.47-3.39-1.4-1.87-1.87-1.87-4.91 0-6.78l8.08-8.08z"/></g></svg>